<svg width="426" height="148" viewBox="0 0 426 148" fill="none" xmlns="http://www.w3.org/2000/svg">
<rect width="426" height="148" rx="20" fill="black"/>
<path d="M149.732 52V37.0703H153.947C155.246 37.0703 156.394 37.3574 157.392 37.9316C158.39 38.5059 159.159 39.3228 159.699 40.3823C160.246 41.4419 160.523 42.6587 160.53 44.0327V44.9863C160.53 46.3945 160.256 47.6284 159.709 48.688C159.169 49.7476 158.394 50.561 157.382 51.1284C156.377 51.6958 155.205 51.9863 153.865 52H149.732ZM151.701 38.6904V50.3901H153.772C155.29 50.3901 156.469 49.9185 157.31 48.9751C158.158 48.0317 158.582 46.6885 158.582 44.9453V44.0737C158.582 42.3784 158.182 41.0625 157.382 40.126C156.589 39.1826 155.461 38.7041 153.998 38.6904H151.701Z" fill="white"/>
<path d="M162.714 46.3501C162.714 45.2632 162.926 44.2856 163.35 43.4175C163.78 42.5493 164.375 41.8794 165.134 41.4077C165.899 40.936 166.771 40.7002 167.749 40.7002C169.259 40.7002 170.479 41.2231 171.409 42.269C172.346 43.3149 172.814 44.7061 172.814 46.4424V46.5757C172.814 47.6558 172.605 48.6265 172.188 49.4878C171.778 50.3423 171.187 51.0088 170.415 51.4873C169.649 51.9658 168.767 52.2051 167.769 52.2051C166.265 52.2051 165.045 51.6821 164.108 50.6362C163.179 49.5903 162.714 48.2061 162.714 46.4834V46.3501ZM164.621 46.5757C164.621 47.8062 164.905 48.7939 165.472 49.5391C166.046 50.2842 166.812 50.6567 167.769 50.6567C168.733 50.6567 169.499 50.2808 170.066 49.5288C170.633 48.77 170.917 47.7104 170.917 46.3501C170.917 45.1333 170.626 44.1489 170.045 43.397C169.471 42.6382 168.706 42.2588 167.749 42.2588C166.812 42.2588 166.057 42.6313 165.482 43.3765C164.908 44.1216 164.621 45.188 164.621 46.5757Z" fill="white"/>
<path d="M185.016 49.3853L187.149 40.9053H189.046L185.816 52H184.278L181.581 43.5918L178.956 52H177.418L174.198 40.9053H176.085L178.269 49.2109L180.853 40.9053H182.381L185.016 49.3853Z" fill="white"/>
<path d="M192.778 40.9053L192.84 42.2998C193.688 41.2334 194.795 40.7002 196.162 40.7002C198.507 40.7002 199.689 42.0229 199.71 44.6685V52H197.813V44.6582C197.806 43.8584 197.622 43.2671 197.259 42.8843C196.904 42.5015 196.347 42.3101 195.588 42.3101C194.973 42.3101 194.433 42.4741 193.968 42.8022C193.503 43.1304 193.141 43.561 192.881 44.0942V52H190.984V40.9053H192.778Z" fill="white"/>
<path d="M204.632 52H202.735V36.25H204.632V52Z" fill="white"/>
<path d="M207.175 46.3501C207.175 45.2632 207.387 44.2856 207.811 43.4175C208.241 42.5493 208.836 41.8794 209.595 41.4077C210.36 40.936 211.232 40.7002 212.209 40.7002C213.72 40.7002 214.94 41.2231 215.87 42.269C216.807 43.3149 217.275 44.7061 217.275 46.4424V46.5757C217.275 47.6558 217.066 48.6265 216.649 49.4878C216.239 50.3423 215.648 51.0088 214.875 51.4873C214.11 51.9658 213.228 52.2051 212.23 52.2051C210.726 52.2051 209.506 51.6821 208.569 50.6362C207.64 49.5903 207.175 48.2061 207.175 46.4834V46.3501ZM209.082 46.5757C209.082 47.8062 209.366 48.7939 209.933 49.5391C210.507 50.2842 211.273 50.6567 212.23 50.6567C213.194 50.6567 213.959 50.2808 214.527 49.5288C215.094 48.77 215.378 47.7104 215.378 46.3501C215.378 45.1333 215.087 44.1489 214.506 43.397C213.932 42.6382 213.167 42.2588 212.209 42.2588C211.273 42.2588 210.518 42.6313 209.943 43.3765C209.369 44.1216 209.082 45.188 209.082 46.5757Z" fill="white"/>
<path d="M226.503 52C226.394 51.7812 226.305 51.3916 226.237 50.8311C225.355 51.7471 224.302 52.2051 223.079 52.2051C221.985 52.2051 221.086 51.8975 220.382 51.2822C219.685 50.6602 219.336 49.874 219.336 48.9238C219.336 47.7686 219.773 46.873 220.648 46.2373C221.53 45.5947 222.768 45.2734 224.36 45.2734H226.206V44.4019C226.206 43.7388 226.008 43.2124 225.611 42.8228C225.215 42.4263 224.63 42.228 223.858 42.228C223.181 42.228 222.614 42.3989 222.156 42.7407C221.698 43.0825 221.469 43.4961 221.469 43.9814H219.562C219.562 43.4277 219.756 42.8945 220.146 42.3818C220.542 41.8623 221.076 41.4521 221.746 41.1514C222.422 40.8506 223.164 40.7002 223.971 40.7002C225.249 40.7002 226.25 41.0215 226.975 41.6641C227.7 42.2998 228.076 43.1782 228.103 44.2993V49.4058C228.103 50.4243 228.233 51.2344 228.493 51.8359V52H226.503ZM223.355 50.5542C223.95 50.5542 224.514 50.4004 225.047 50.0928C225.581 49.7852 225.967 49.3853 226.206 48.8931V46.6167H224.719C222.395 46.6167 221.233 47.2969 221.233 48.6572C221.233 49.252 221.431 49.7168 221.828 50.0518C222.224 50.3867 222.733 50.5542 223.355 50.5542Z" fill="white"/>
<path d="M230.615 46.3604C230.615 44.6582 231.019 43.291 231.825 42.2588C232.632 41.2197 233.688 40.7002 234.994 40.7002C236.292 40.7002 237.321 41.1445 238.08 42.0332V36.25H239.977V52H238.234L238.142 50.8105C237.383 51.7402 236.327 52.2051 234.973 52.2051C233.688 52.2051 232.639 51.6787 231.825 50.626C231.019 49.5732 230.615 48.1992 230.615 46.5039V46.3604ZM232.512 46.5757C232.512 47.8335 232.772 48.8179 233.292 49.5288C233.811 50.2397 234.529 50.5952 235.445 50.5952C236.648 50.5952 237.526 50.0552 238.08 48.9751V43.8789C237.513 42.833 236.641 42.3101 235.465 42.3101C234.536 42.3101 233.811 42.6689 233.292 43.3867C232.772 44.1045 232.512 45.1675 232.512 46.5757Z" fill="white"/>
<path d="M247.637 46.3501C247.637 45.2632 247.849 44.2856 248.272 43.4175C248.703 42.5493 249.298 41.8794 250.057 41.4077C250.822 40.936 251.694 40.7002 252.671 40.7002C254.182 40.7002 255.402 41.2231 256.332 42.269C257.269 43.3149 257.737 44.7061 257.737 46.4424V46.5757C257.737 47.6558 257.528 48.6265 257.111 49.4878C256.701 50.3423 256.11 51.0088 255.337 51.4873C254.572 51.9658 253.69 52.2051 252.692 52.2051C251.188 52.2051 249.968 51.6821 249.031 50.6362C248.102 49.5903 247.637 48.2061 247.637 46.4834V46.3501ZM249.544 46.5757C249.544 47.8062 249.828 48.7939 250.395 49.5391C250.969 50.2842 251.735 50.6567 252.692 50.6567C253.656 50.6567 254.421 50.2808 254.989 49.5288C255.556 48.77 255.84 47.7104 255.84 46.3501C255.84 45.1333 255.549 44.1489 254.968 43.397C254.394 42.6382 253.628 42.2588 252.671 42.2588C251.735 42.2588 250.979 42.6313 250.405 43.3765C249.831 44.1216 249.544 45.188 249.544 46.5757Z" fill="white"/>
<path d="M261.91 40.9053L261.972 42.2998C262.819 41.2334 263.927 40.7002 265.294 40.7002C267.639 40.7002 268.821 42.0229 268.842 44.6685V52H266.945V44.6582C266.938 43.8584 266.753 43.2671 266.391 42.8843C266.036 42.5015 265.479 42.3101 264.72 42.3101C264.104 42.3101 263.564 42.4741 263.1 42.8022C262.635 43.1304 262.272 43.561 262.013 44.0942V52H260.116V40.9053H261.91Z" fill="white"/>
<path d="M279.485 38.2188V40.9053H281.557V42.3716H279.485V49.252C279.485 49.6963 279.578 50.0312 279.762 50.2568C279.947 50.4756 280.261 50.585 280.706 50.585C280.924 50.585 281.225 50.5439 281.608 50.4619V52C281.109 52.1367 280.624 52.2051 280.152 52.2051C279.304 52.2051 278.665 51.9487 278.234 51.436C277.804 50.9233 277.588 50.1953 277.588 49.252V42.3716H275.568V40.9053H277.588V38.2188H279.485Z" fill="white"/>
<path d="M285.679 42.2485C286.52 41.2163 287.613 40.7002 288.96 40.7002C291.305 40.7002 292.487 42.0229 292.508 44.6685V52H290.611V44.6582C290.604 43.8584 290.419 43.2671 290.057 42.8843C289.702 42.5015 289.145 42.3101 288.386 42.3101C287.771 42.3101 287.23 42.4741 286.766 42.8022C286.301 43.1304 285.938 43.561 285.679 44.0942V52H283.782V36.25H285.679V42.2485Z" fill="white"/>
<path d="M299.952 52.2051C298.448 52.2051 297.225 51.7129 296.281 50.7285C295.338 49.7373 294.866 48.4146 294.866 46.7603V46.4116C294.866 45.311 295.075 44.3301 295.492 43.4688C295.916 42.6006 296.503 41.9238 297.255 41.4385C298.014 40.9463 298.834 40.7002 299.716 40.7002C301.159 40.7002 302.28 41.1753 303.08 42.1255C303.879 43.0757 304.279 44.436 304.279 46.2065V46.9961H296.763C296.791 48.0898 297.108 48.9751 297.717 49.6519C298.332 50.3218 299.111 50.6567 300.055 50.6567C300.725 50.6567 301.292 50.52 301.757 50.2466C302.222 49.9731 302.628 49.6108 302.977 49.1597L304.136 50.062C303.206 51.4907 301.812 52.2051 299.952 52.2051ZM299.716 42.2588C298.951 42.2588 298.308 42.5391 297.789 43.0996C297.269 43.6533 296.948 44.4326 296.825 45.4375H302.382V45.2939C302.328 44.3301 302.068 43.585 301.603 43.0586C301.138 42.5254 300.509 42.2588 299.716 42.2588Z" fill="white"/>
<path d="M148.18 105L159.988 76.3H166.876L178.52 105H172.083L169.172 97.456H157.323L154.371 105H148.18ZM159.168 92.7H167.368L163.309 82.122L159.168 92.7Z" fill="white"/>
<path d="M180.587 113.569V83.639H186.122V85.402C186.969 84.7187 187.912 84.213 188.951 83.885C189.99 83.5297 191.069 83.352 192.19 83.352C193.693 83.352 195.101 83.639 196.413 84.213C197.752 84.787 198.914 85.566 199.898 86.55C200.882 87.534 201.647 88.6957 202.194 90.035C202.768 91.3743 203.055 92.8093 203.055 94.34C203.055 95.8707 202.768 97.3057 202.194 98.645C201.62 99.9843 200.841 101.146 199.857 102.13C198.873 103.114 197.698 103.893 196.331 104.467C194.992 105.014 193.557 105.287 192.026 105.287C190.987 105.287 189.962 105.15 188.951 104.877C187.967 104.576 187.051 104.153 186.204 103.606V113.569H180.587ZM191.288 88.149C190.277 88.149 189.334 88.3267 188.459 88.682C187.584 89.01 186.833 89.502 186.204 90.158V98.563C186.805 99.1644 187.543 99.6427 188.418 99.998C189.32 100.353 190.277 100.531 191.288 100.531C193.037 100.531 194.513 99.9433 195.716 98.768C196.919 97.5653 197.52 96.0893 197.52 94.34C197.52 92.5907 196.905 91.1283 195.675 89.953C194.472 88.7503 193.01 88.149 191.288 88.149Z" fill="white"/>
<path d="M206.492 113.569V83.639H212.027V85.402C212.875 84.7187 213.818 84.213 214.856 83.885C215.895 83.5297 216.975 83.352 218.095 83.352C219.599 83.352 221.006 83.639 222.318 84.213C223.658 84.787 224.819 85.566 225.803 86.55C226.787 87.534 227.553 88.6957 228.099 90.035C228.673 91.3743 228.96 92.8093 228.96 94.34C228.96 95.8707 228.673 97.3057 228.099 98.645C227.525 99.9843 226.746 101.146 225.762 102.13C224.778 103.114 223.603 103.893 222.236 104.467C220.897 105.014 219.462 105.287 217.931 105.287C216.893 105.287 215.868 105.15 214.856 104.877C213.872 104.576 212.957 104.153 212.109 103.606V113.569H206.492ZM217.193 88.149C216.182 88.149 215.239 88.3267 214.364 88.682C213.49 89.01 212.738 89.502 212.109 90.158V98.563C212.711 99.1644 213.449 99.6427 214.323 99.998C215.225 100.353 216.182 100.531 217.193 100.531C218.943 100.531 220.419 99.9433 221.621 98.768C222.824 97.5653 223.425 96.0893 223.425 94.34C223.425 92.5907 222.81 91.1283 221.58 89.953C220.378 88.7503 218.915 88.149 217.193 88.149Z" fill="white"/>
<path d="M238.555 100.449L241.958 96.185C243.625 97.6337 245.224 98.6997 246.755 99.383C248.313 100.039 249.953 100.367 251.675 100.367C253.451 100.367 254.873 100.039 255.939 99.383C257.005 98.727 257.538 97.8523 257.538 96.759C257.538 95.775 257.169 95.0097 256.431 94.463C255.72 93.9163 254.517 93.5064 252.823 93.233L247.124 92.249C244.664 91.839 242.791 90.978 241.507 89.666C240.249 88.354 239.621 86.6593 239.621 84.582C239.621 81.9033 240.632 79.785 242.655 78.227C244.705 76.669 247.465 75.89 250.937 75.89C253.014 75.89 255.105 76.2453 257.21 76.956C259.342 77.6667 261.2 78.6507 262.786 79.908L259.588 84.336C258.057 83.1607 256.554 82.2997 255.078 81.753C253.602 81.179 252.085 80.892 250.527 80.892C248.941 80.892 247.67 81.1927 246.714 81.794C245.757 82.368 245.279 83.147 245.279 84.131C245.279 85.0057 245.593 85.689 246.222 86.181C246.85 86.673 247.903 87.0283 249.379 87.247L254.791 88.149C257.633 88.6137 259.765 89.5293 261.187 90.896C262.635 92.2353 263.36 94.012 263.36 96.226C263.36 99.014 262.253 101.242 260.039 102.909C257.852 104.576 254.927 105.41 251.265 105.41C248.969 105.41 246.7 104.973 244.459 104.098C242.245 103.223 240.277 102.007 238.555 100.449Z" fill="white"/>
<path d="M268.661 98.973V88.354H264.274V83.639H268.661V78.186L274.278 76.915V83.639H280.346V88.354H274.278V97.825C274.278 98.8363 274.497 99.547 274.934 99.957C275.371 100.367 276.137 100.572 277.23 100.572C277.749 100.572 278.241 100.545 278.706 100.49C279.171 100.408 279.676 100.271 280.223 100.08V104.672C279.622 104.863 278.897 105.014 278.05 105.123C277.203 105.26 276.478 105.328 275.877 105.328C273.499 105.328 271.695 104.795 270.465 103.729C269.262 102.636 268.661 101.05 268.661 98.973Z" fill="white"/>
<path d="M281.943 94.34C281.943 92.782 282.23 91.3333 282.804 89.994C283.405 88.6273 284.211 87.452 285.223 86.468C286.261 85.4567 287.478 84.664 288.872 84.09C290.266 83.516 291.756 83.229 293.341 83.229C294.926 83.229 296.416 83.516 297.81 84.09C299.204 84.664 300.406 85.4567 301.418 86.468C302.456 87.452 303.263 88.6273 303.837 89.994C304.438 91.3333 304.739 92.782 304.739 94.34C304.739 95.898 304.438 97.3603 303.837 98.727C303.263 100.066 302.456 101.228 301.418 102.212C300.406 103.196 299.204 103.975 297.81 104.549C296.416 105.123 294.926 105.41 293.341 105.41C291.756 105.41 290.266 105.123 288.872 104.549C287.478 103.975 286.261 103.196 285.223 102.212C284.211 101.228 283.405 100.066 282.804 98.727C282.23 97.3603 281.943 95.898 281.943 94.34ZM293.341 100.531C294.981 100.531 296.375 99.9297 297.523 98.727C298.671 97.5243 299.245 96.062 299.245 94.34C299.245 92.5907 298.671 91.1147 297.523 89.912C296.375 88.7093 294.981 88.108 293.341 88.108C291.701 88.108 290.307 88.7093 289.159 89.912C288.011 91.1147 287.437 92.5907 287.437 94.34C287.437 96.062 288.011 97.5243 289.159 98.727C290.307 99.9297 291.701 100.531 293.341 100.531Z" fill="white"/>
<path d="M308.191 105V83.639H313.808V85.976C314.492 85.0467 315.312 84.3497 316.268 83.885C317.252 83.393 318.332 83.147 319.507 83.147C320.054 83.1743 320.505 83.229 320.86 83.311C321.243 83.3657 321.571 83.475 321.844 83.639V88.559C321.434 88.3677 320.983 88.231 320.491 88.149C319.999 88.0397 319.494 87.985 318.974 87.985C317.881 87.985 316.87 88.2583 315.94 88.805C315.038 89.3517 314.328 90.1443 313.808 91.183V105H308.191Z" fill="white"/>
<path d="M342.994 102.335C341.682 103.401 340.329 104.18 338.935 104.672C337.568 105.164 336.037 105.41 334.343 105.41C332.73 105.41 331.213 105.123 329.792 104.549C328.398 103.975 327.181 103.196 326.143 102.212C325.131 101.228 324.325 100.066 323.724 98.727C323.15 97.3603 322.863 95.898 322.863 94.34C322.863 92.8093 323.136 91.3743 323.683 90.035C324.257 88.6683 325.036 87.493 326.02 86.509C327.004 85.4977 328.165 84.705 329.505 84.131C330.871 83.557 332.32 83.27 333.851 83.27C335.354 83.27 336.748 83.5707 338.033 84.172C339.345 84.746 340.465 85.5387 341.395 86.55C342.351 87.5613 343.089 88.7777 343.609 90.199C344.155 91.593 344.429 93.11 344.429 94.75V96.226H328.521C328.903 97.5653 329.641 98.645 330.735 99.465C331.828 100.285 333.113 100.695 334.589 100.695C335.518 100.695 336.393 100.545 337.213 100.244C338.033 99.9433 338.73 99.5197 339.304 98.973L342.994 102.335ZM333.728 87.903C332.443 87.903 331.336 88.2993 330.407 89.092C329.477 89.8573 328.835 90.896 328.48 92.208H338.935C338.579 90.9507 337.923 89.9257 336.967 89.133C336.037 88.313 334.958 87.903 333.728 87.903Z" fill="white"/>
<g clip-path="url(#clip0)">
<path d="M85.247 44C82.0483 44.2212 78.3095 46.2687 76.1308 48.935C74.1433 51.3537 72.5083 54.9462 73.1458 58.4374C76.6408 58.5462 80.252 56.4499 82.3445 53.7387C84.302 51.215 85.7832 47.645 85.247 44Z" fill="white"/>
<path d="M97.8883 64.13C94.8171 60.2788 90.5009 58.0438 86.4246 58.0438C81.0434 58.0438 78.7672 60.6201 75.0284 60.6201C71.1735 60.6201 68.2447 58.0513 63.591 58.0513C59.0198 58.0513 54.1523 60.8451 51.0661 65.6225C46.7274 72.35 47.4698 84.9987 54.5011 95.7724C57.0173 99.6273 60.3773 103.962 64.7722 104C68.6835 104.037 69.786 101.491 75.0847 101.465C80.3834 101.435 81.3884 104.034 85.2921 103.992C89.6909 103.959 93.2346 99.1548 95.7508 95.2999C97.5546 92.5361 98.2258 91.1449 99.6245 88.0249C89.4509 84.1512 87.8196 69.6838 97.8883 64.13Z" fill="white"/>
</g>
<defs>
<clipPath id="clip0">
<rect width="60" height="60" fill="white" transform="translate(44 44)"/>
</clipPath>
</defs>
</svg>
