<svg width="426" height="148" viewBox="0 0 426 148" fill="none" xmlns="http://www.w3.org/2000/svg">
<rect width="426" height="148" rx="20" fill="black"/>
<path d="M160.788 50.0415C160.282 50.7661 159.575 51.3096 158.666 51.6719C157.763 52.0273 156.71 52.2051 155.507 52.2051C154.291 52.2051 153.21 51.9214 152.267 51.354C151.324 50.7798 150.592 49.9663 150.073 48.9136C149.56 47.8608 149.297 46.6406 149.283 45.2529V43.9507C149.283 41.7017 149.806 39.9585 150.852 38.7212C151.905 37.4839 153.381 36.8652 155.282 36.8652C156.84 36.8652 158.095 37.2651 159.045 38.0649C159.995 38.8579 160.576 39.9858 160.788 41.4487H158.819C158.45 39.4731 157.274 38.4854 155.292 38.4854C153.973 38.4854 152.971 38.9502 152.288 39.8799C151.611 40.8027 151.269 42.1426 151.262 43.8994V45.1196C151.262 46.7944 151.645 48.1274 152.411 49.1187C153.176 50.103 154.212 50.5952 155.518 50.5952C156.256 50.5952 156.902 50.5132 157.456 50.3491C158.009 50.1851 158.467 49.9082 158.83 49.5186V46.1655H155.374V44.5659H160.788V50.0415Z" fill="white"/>
<path d="M172.519 45.0991H166.048V50.3901H173.564V52H164.08V37.0703H173.462V38.6904H166.048V43.4893H172.519V45.0991Z" fill="white"/>
<path d="M186.536 38.6904H181.737V52H179.778V38.6904H174.99V37.0703H186.536V38.6904Z" fill="white"/>
<path d="M195.662 52H193.693V37.0703H195.662V52Z" fill="white"/>
<path d="M209.279 38.6904H204.48V52H202.521V38.6904H197.733V37.0703H209.279V38.6904Z" fill="white"/>
<path d="M227.777 45.0171C227.777 46.48 227.531 47.7583 227.039 48.8521C226.546 49.939 225.849 50.7695 224.947 51.3438C224.044 51.918 222.992 52.2051 221.789 52.2051C220.613 52.2051 219.57 51.918 218.661 51.3438C217.752 50.7627 217.044 49.939 216.539 48.8726C216.04 47.7993 215.783 46.5586 215.77 45.1504V44.0737C215.77 42.6382 216.019 41.3701 216.518 40.2695C217.017 39.1689 217.721 38.3281 218.63 37.7471C219.546 37.1592 220.592 36.8652 221.768 36.8652C222.964 36.8652 224.017 37.1558 224.926 37.7368C225.842 38.311 226.546 39.1484 227.039 40.249C227.531 41.3428 227.777 42.6177 227.777 44.0737V45.0171ZM225.818 44.0532C225.818 42.2827 225.463 40.9258 224.752 39.9824C224.041 39.0322 223.046 38.5571 221.768 38.5571C220.524 38.5571 219.543 39.0322 218.825 39.9824C218.114 40.9258 217.749 42.2383 217.728 43.9199V45.0171C217.728 46.7329 218.087 48.083 218.805 49.0674C219.529 50.0449 220.524 50.5337 221.789 50.5337C223.06 50.5337 224.044 50.0723 224.742 49.1494C225.439 48.2197 225.798 46.8901 225.818 45.1606V44.0532Z" fill="white"/>
<path d="M242.204 52H240.225L232.709 40.4951V52H230.73V37.0703H232.709L240.246 48.6265V37.0703H242.204V52Z" fill="white"/>
<path d="M179.424 90.6909C179.424 92.7956 179.055 94.7636 178.317 96.5949C177.607 98.3989 176.609 99.9569 175.324 101.269C174.067 102.554 172.55 103.579 170.773 104.344C168.997 105.082 167.083 105.451 165.033 105.451C162.901 105.451 160.906 105.068 159.047 104.303C157.189 103.538 155.576 102.499 154.209 101.187C152.87 99.8476 151.804 98.2759 151.011 96.4719C150.219 94.6679 149.822 92.7273 149.822 90.6499C149.822 88.5726 150.205 86.6319 150.97 84.8279C151.763 83.0239 152.829 81.4659 154.168 80.1539C155.535 78.8146 157.148 77.7623 159.006 76.9969C160.865 76.2316 162.847 75.8489 164.951 75.8489C167.329 75.8489 169.571 76.3273 171.675 77.2839C173.78 78.2406 175.516 79.5526 176.882 81.2199L172.741 85.0329C171.73 83.8303 170.555 82.9146 169.215 82.2859C167.903 81.6299 166.482 81.3019 164.951 81.3019C163.667 81.3019 162.464 81.5479 161.343 82.0399C160.25 82.5046 159.293 83.1606 158.473 84.0079C157.681 84.8279 157.052 85.8119 156.587 86.9599C156.15 88.0806 155.931 89.3106 155.931 90.6499C155.931 91.9893 156.164 93.2329 156.628 94.3809C157.093 95.5289 157.735 96.5266 158.555 97.3739C159.375 98.1939 160.346 98.8499 161.466 99.3419C162.614 99.8066 163.831 100.039 165.115 100.039C167.138 100.039 168.874 99.4786 170.322 98.3579C171.798 97.2373 172.714 95.8023 173.069 94.0529H164.582V88.8869H179.424V90.6909Z" fill="white"/>
<path d="M182.128 94.3399C182.128 92.7819 182.415 91.3333 182.989 89.9939C183.59 88.6273 184.397 87.4519 185.408 86.4679C186.447 85.4566 187.663 84.6639 189.057 84.0899C190.451 83.5159 191.941 83.2289 193.526 83.2289C195.111 83.2289 196.601 83.5159 197.995 84.0899C199.389 84.6639 200.592 85.4566 201.603 86.4679C202.642 87.4519 203.448 88.6273 204.022 89.9939C204.623 91.3333 204.924 92.7819 204.924 94.3399C204.924 95.8979 204.623 97.3603 204.022 98.7269C203.448 100.066 202.642 101.228 201.603 102.212C200.592 103.196 199.389 103.975 197.995 104.549C196.601 105.123 195.111 105.41 193.526 105.41C191.941 105.41 190.451 105.123 189.057 104.549C187.663 103.975 186.447 103.196 185.408 102.212C184.397 101.228 183.59 100.066 182.989 98.7269C182.415 97.3603 182.128 95.8979 182.128 94.3399ZM193.526 100.531C195.166 100.531 196.56 99.9296 197.708 98.7269C198.856 97.5243 199.43 96.0619 199.43 94.3399C199.43 92.5906 198.856 91.1146 197.708 89.9119C196.56 88.7093 195.166 88.1079 193.526 88.1079C191.886 88.1079 190.492 88.7093 189.344 89.9119C188.196 91.1146 187.622 92.5906 187.622 94.3399C187.622 96.0619 188.196 97.5243 189.344 98.7269C190.492 99.9296 191.886 100.531 193.526 100.531Z" fill="white"/>
<path d="M207.553 94.3399C207.553 92.7819 207.84 91.3333 208.414 89.9939C209.015 88.6273 209.821 87.4519 210.833 86.4679C211.871 85.4566 213.088 84.6639 214.482 84.0899C215.876 83.5159 217.365 83.2289 218.951 83.2289C220.536 83.2289 222.026 83.5159 223.42 84.0899C224.814 84.6639 226.016 85.4566 227.028 86.4679C228.066 87.4519 228.873 88.6273 229.447 89.9939C230.048 91.3333 230.349 92.7819 230.349 94.3399C230.349 95.8979 230.048 97.3603 229.447 98.7269C228.873 100.066 228.066 101.228 227.028 102.212C226.016 103.196 224.814 103.975 223.42 104.549C222.026 105.123 220.536 105.41 218.951 105.41C217.365 105.41 215.876 105.123 214.482 104.549C213.088 103.975 211.871 103.196 210.833 102.212C209.821 101.228 209.015 100.066 208.414 98.7269C207.84 97.3603 207.553 95.8979 207.553 94.3399ZM218.951 100.531C220.591 100.531 221.985 99.9296 223.133 98.7269C224.281 97.5243 224.855 96.0619 224.855 94.3399C224.855 92.5906 224.281 91.1146 223.133 89.9119C221.985 88.7093 220.591 88.1079 218.951 88.1079C217.311 88.1079 215.917 88.7093 214.769 89.9119C213.621 91.1146 213.047 92.5906 213.047 94.3399C213.047 96.0619 213.621 97.5243 214.769 98.7269C215.917 99.9296 217.311 100.531 218.951 100.531Z" fill="white"/>
<path d="M243.802 105.123C242.298 105.123 240.877 104.836 239.538 104.262C238.226 103.688 237.078 102.909 236.094 101.925C235.137 100.941 234.372 99.7929 233.798 98.4809C233.251 97.1416 232.978 95.7066 232.978 94.1759C232.978 92.6726 233.265 91.2649 233.839 89.9529C234.413 88.6136 235.192 87.4519 236.176 86.4679C237.16 85.4839 238.321 84.7186 239.661 84.1719C241 83.5979 242.435 83.3109 243.966 83.3109C245.032 83.3109 246.043 83.4613 247 83.7619C247.984 84.0626 248.899 84.4863 249.747 85.0329V83.6389H255.282V105C255.282 107.815 254.366 109.988 252.535 111.519C250.731 113.05 248.12 113.815 244.704 113.815C243.064 113.815 241.478 113.651 239.948 113.323C238.444 112.995 237.064 112.517 235.807 111.888L237.775 107.501C238.95 108.075 240.098 108.499 241.219 108.772C242.339 109.073 243.46 109.223 244.581 109.223C246.248 109.223 247.505 108.854 248.353 108.116C249.227 107.405 249.665 106.353 249.665 104.959V103.196C248.817 103.825 247.888 104.303 246.877 104.631C245.893 104.959 244.868 105.123 243.802 105.123ZM238.513 94.1759C238.513 95.8979 239.1 97.3603 240.276 98.5629C241.478 99.7656 242.941 100.367 244.663 100.367C245.674 100.367 246.603 100.203 247.451 99.8749C248.298 99.5196 249.036 99.0413 249.665 98.4399V90.0349C249.063 89.4336 248.325 88.9689 247.451 88.6409C246.576 88.2856 245.66 88.1079 244.704 88.1079C242.982 88.1079 241.519 88.6956 240.317 89.8709C239.114 91.0463 238.513 92.4813 238.513 94.1759Z" fill="white"/>
<path d="M265.324 75.0699V105H259.707V76.2999L265.324 75.0699Z" fill="white"/>
<path d="M288.864 102.335C287.552 103.401 286.199 104.18 284.805 104.672C283.438 105.164 281.907 105.41 280.213 105.41C278.6 105.41 277.083 105.123 275.662 104.549C274.268 103.975 273.051 103.196 272.013 102.212C271.001 101.228 270.195 100.066 269.594 98.7269C269.02 97.3603 268.733 95.8979 268.733 94.3399C268.733 92.8093 269.006 91.3743 269.553 90.0349C270.127 88.6683 270.906 87.4929 271.89 86.5089C272.874 85.4976 274.035 84.7049 275.375 84.1309C276.741 83.5569 278.19 83.2699 279.721 83.2699C281.224 83.2699 282.618 83.5706 283.903 84.1719C285.215 84.7459 286.335 85.5386 287.265 86.5499C288.221 87.5613 288.959 88.7776 289.479 90.1989C290.025 91.5929 290.299 93.1099 290.299 94.7499V96.2259H274.391C274.773 97.5653 275.511 98.6449 276.605 99.4649C277.698 100.285 278.983 100.695 280.459 100.695C281.388 100.695 282.263 100.545 283.083 100.244C283.903 99.9433 284.6 99.5196 285.174 98.9729L288.864 102.335ZM279.598 87.9029C278.313 87.9029 277.206 88.2993 276.277 89.0919C275.347 89.8573 274.705 90.8959 274.35 92.2079H284.805C284.449 90.9506 283.793 89.9256 282.837 89.1329C281.907 88.3129 280.828 87.9029 279.598 87.9029Z" fill="white"/>
<path d="M301.988 113.569V83.6389H307.523V85.4019C308.37 84.7186 309.313 84.2129 310.352 83.8849C311.391 83.5296 312.47 83.3519 313.591 83.3519C315.094 83.3519 316.502 83.6389 317.814 84.2129C319.153 84.7869 320.315 85.5659 321.299 86.5499C322.283 87.5339 323.048 88.6956 323.595 90.0349C324.169 91.3743 324.456 92.8093 324.456 94.3399C324.456 95.8706 324.169 97.3056 323.595 98.6449C323.021 99.9843 322.242 101.146 321.258 102.13C320.274 103.114 319.099 103.893 317.732 104.467C316.393 105.014 314.958 105.287 313.427 105.287C312.388 105.287 311.363 105.15 310.352 104.877C309.368 104.576 308.452 104.153 307.605 103.606V113.569H301.988ZM312.689 88.1489C311.678 88.1489 310.735 88.3266 309.86 88.6819C308.985 89.0099 308.234 89.5019 307.605 90.1579V98.5629C308.206 99.1643 308.944 99.6426 309.819 99.9979C310.721 100.353 311.678 100.531 312.689 100.531C314.438 100.531 315.914 99.9433 317.117 98.7679C318.32 97.5653 318.921 96.0893 318.921 94.3399C318.921 92.5906 318.306 91.1283 317.076 89.9529C315.873 88.7503 314.411 88.1489 312.689 88.1489Z" fill="white"/>
<path d="M333.51 75.0699V105H327.893V76.2999L333.51 75.0699Z" fill="white"/>
<path d="M344.668 105.369C342.372 105.369 340.5 104.768 339.051 103.565C337.602 102.335 336.878 100.75 336.878 98.8089C336.878 96.7863 337.657 95.2009 339.215 94.0529C340.773 92.9049 342.919 92.3309 345.652 92.3309C346.527 92.3309 347.401 92.3993 348.276 92.5359C349.151 92.6726 350.012 92.8776 350.859 93.1509V91.6339C350.859 90.4039 350.476 89.4746 349.711 88.8459C348.946 88.2173 347.825 87.9029 346.349 87.9029C345.447 87.9029 344.463 88.0533 343.397 88.3539C342.358 88.6273 341.169 89.0646 339.83 89.6659L337.78 85.5249C339.447 84.7596 341.06 84.1856 342.618 83.8029C344.203 83.4203 345.761 83.2289 347.292 83.2289C350.162 83.2289 352.39 83.9259 353.975 85.3199C355.588 86.6866 356.394 88.6273 356.394 91.1419V105H350.859V103.524C349.957 104.153 349 104.617 347.989 104.918C347.005 105.219 345.898 105.369 344.668 105.369ZM342.249 98.6859C342.249 99.5059 342.604 100.162 343.315 100.654C344.026 101.119 344.969 101.351 346.144 101.351C347.073 101.351 347.921 101.242 348.686 101.023C349.479 100.777 350.203 100.435 350.859 99.9979V96.7999C350.176 96.5266 349.451 96.3353 348.686 96.2259C347.948 96.0893 347.169 96.0209 346.349 96.0209C345.064 96.0209 344.053 96.2669 343.315 96.7589C342.604 97.2236 342.249 97.8659 342.249 98.6859Z" fill="white"/>
<path d="M366.026 105.984L366.354 105.205L358.031 83.6389H364.222L369.511 98.1939L375.579 83.6389H381.647L371.807 106.681C370.714 109.25 369.443 111.082 367.994 112.175C366.545 113.268 364.659 113.815 362.336 113.815C361.844 113.815 361.365 113.788 360.901 113.733C360.463 113.706 360.108 113.651 359.835 113.569V108.731C360.108 108.786 360.395 108.827 360.696 108.854C360.996 108.881 361.366 108.895 361.803 108.895C362.814 108.895 363.661 108.649 364.345 108.157C365.055 107.665 365.616 106.941 366.026 105.984Z" fill="white"/>
<g clip-path="url(#clip0)">
<path d="M101.501 73.9996C101.501 75.8746 100.451 77.5246 98.9258 78.3746L85.9258 85.5996L74.9258 73.9996L85.9258 62.3997L98.9258 69.6247C100.451 70.4747 101.501 72.1246 101.501 73.9996Z" fill="#FFC107"/>
<path d="M74.925 73.9997L47.925 102.475C47.025 101.575 46.5 100.35 46.5 98.9997V48.9997C46.5 47.6497 47.025 46.4247 47.925 45.5247L74.925 73.9997Z" fill="#03A9F4"/>
<path d="M74.9258 74L85.9258 85.6C52.9933 103.662 51.6133 106.368 47.9258 102.475L74.9258 74Z" fill="#F44336"/>
<path d="M85.9258 62.3999L74.9258 73.9999L47.9258 45.5249C49.4708 43.8924 51.9483 43.5349 53.9258 44.6249L85.9258 62.3999Z" fill="#4CAF50"/>
</g>
<defs>
<clipPath id="clip0">
<rect width="60" height="60" fill="white" transform="translate(44 44)"/>
</clipPath>
</defs>
</svg>
