<svg width="64" height="64" viewBox="0 0 64 64" fill="none" xmlns="http://www.w3.org/2000/svg">
<g clip-path="url(#clip0)">
<path d="M61.3357 44.6216L56.3762 39.6626C52.8288 36.1147 47.0569 36.1147 43.509 39.6626L40.1706 43.0005C38.8772 44.2949 36.842 44.3862 35.4372 43.2139C30.1379 38.7915 25.2087 33.8623 20.7864 28.563C19.614 27.1582 19.7058 25.123 20.9997 23.8296L24.3376 20.4912C27.885 16.9438 27.885 11.1714 24.3376 7.62402L19.3786 2.66455C17.6604 0.946289 15.3752 0 12.945 0C10.5149 0 8.2302 0.946289 6.51145 2.66455C2.8054 6.37109 0.52073 11.2886 0.078835 16.5117C-0.363059 21.7344 1.06321 26.9658 4.09446 31.2422C11.9841 42.3721 21.6277 52.0161 32.758 59.9058C36.5246 62.5757 41.0315 64.0005 45.6213 64C46.2424 64 46.8659 63.9736 47.4885 63.9214C52.7116 63.4795 57.6291 61.1948 61.3352 57.4888C63.0539 55.7705 64.0002 53.4854 64.0002 51.0552C64.0002 48.625 63.0539 46.3398 61.3357 44.6216ZM34.2038 57.8662C23.3044 50.1401 13.8601 40.6958 6.13401 29.7964C0.553444 21.9233 1.45579 11.2563 8.27952 4.43262C9.52561 3.18652 11.1828 2.5 12.945 2.5C14.7077 2.5 16.3645 3.18652 17.6111 4.43262L22.57 9.3916C23.8166 10.6382 24.5027 12.2949 24.5027 14.0576C24.5027 15.8203 23.8161 17.4771 22.57 18.7236L22.364 18.9297L14.217 10.7827C13.7287 10.2949 12.9372 10.2949 12.449 10.7827C11.9612 11.271 11.9612 12.0625 12.449 12.5508L20.5959 20.6978L19.2317 22.0615C17.0173 24.2764 16.8601 27.7603 18.8669 30.165C23.385 35.5796 28.4211 40.6152 33.8352 45.1333C36.2405 47.1401 39.7239 46.9834 41.9387 44.7686L43.303 43.4048L57.4548 57.5566C50.678 62.6582 41.3049 62.8994 34.2038 57.8662ZM59.5676 55.7207C59.4973 55.791 59.426 55.8599 59.3552 55.9287C59.3313 55.9004 59.3069 55.8726 59.28 55.8457L45.0705 41.6362L45.2771 41.4302C46.5232 40.1841 48.1799 39.4976 49.9426 39.4976C51.7053 39.4976 53.362 40.1841 54.6086 41.4302L59.5676 46.3896C60.8142 47.6357 61.5002 49.293 61.5002 51.0552C61.5002 52.8179 60.8137 54.4746 59.5676 55.7207Z" fill="black"/>
<path d="M9.91406 6.99756C9.58545 6.99756 9.26318 7.12988 9.03076 7.36377C8.79785 7.59619 8.66406 7.91895 8.66406 8.24756C8.66406 8.57617 8.79785 8.89893 9.03076 9.13135C9.26318 9.36377 9.58545 9.49756 9.91406 9.49756C10.2441 9.49756 10.5654 9.36377 10.7979 9.13135C11.0308 8.89893 11.1641 8.57617 11.1641 8.24756C11.1641 7.91895 11.0308 7.59619 10.7979 7.36377C10.5654 7.12988 10.2432 6.99756 9.91406 6.99756Z" fill="black"/>
<path d="M27.2874 45.9893C24.7268 43.711 22.2415 41.2871 19.9012 38.7852C19.4295 38.2808 18.6385 38.2544 18.1346 38.7261C17.6302 39.1978 17.6038 39.9888 18.0755 40.4927C20.468 43.0508 23.0081 45.5283 25.6258 47.8574C25.8636 48.0694 26.1604 48.1734 26.4558 48.1734C26.8006 48.1734 27.1433 48.0318 27.3904 47.7544C27.8494 47.2383 27.803 46.4483 27.2874 45.9893Z" fill="black"/>
<path d="M16.6535 35.1586C16.2043 34.6346 15.4147 34.5741 14.8908 35.0238C14.3674 35.4735 14.3068 36.2626 14.7565 36.7865L14.777 36.8104C15.0241 37.0985 15.3742 37.247 15.7267 37.247C16.0143 37.247 16.3039 37.1478 16.5392 36.9457C17.0637 36.4965 17.1242 35.7074 16.675 35.183L16.6535 35.1586Z" fill="black"/>
</g>
<defs>
<clipPath id="clip0">
<rect width="64" height="64" fill="white"/>
</clipPath>
</defs>
</svg>
