<svg width="64" height="64" viewBox="0 0 64 64" fill="none" xmlns="http://www.w3.org/2000/svg">
<g clip-path="url(#clip0)">
<path d="M55.3197 22.4697C54.9108 21.9135 54.1284 21.7942 53.5722 22.2031L51.2214 23.9314L51.5439 21.032C51.6202 20.3459 51.1259 19.7279 50.4399 19.6516C49.7534 19.5751 49.1358 20.0696 49.0596 20.7556L48.4218 26.4895C48.3456 27.1756 48.8398 27.7936 49.5258 27.8699C49.5728 27.8751 49.6194 27.8776 49.6656 27.8776C49.9381 27.8776 50.1941 27.7885 50.4024 27.6356C50.4031 27.6351 50.4037 27.635 50.4043 27.6345L50.4081 27.6317L50.4082 27.6316L55.0532 24.2167C55.6092 23.8082 55.7286 23.0259 55.3197 22.4697Z" fill="black"/>
<path d="M7.24044 29.3613C7.05319 29.3613 6.86344 29.3191 6.68481 29.2298C6.06744 28.9212 5.81531 28.174 6.12406 27.5565L6.12756 27.5493C6.43631 26.932 7.18694 26.6817 7.80444 26.9903C8.42194 27.299 8.67219 28.0498 8.36344 28.6672C8.14406 29.1061 7.70044 29.3613 7.24044 29.3613Z" fill="black"/>
<path d="M61.5738 19.4147L61.2231 19.2123L62.4887 17.0211C63.9938 14.4147 64.391 11.3685 63.607 8.44372C62.8231 5.5196 60.9561 3.08047 58.35 1.57572C52.9505 -1.54215 46.019 0.313471 42.898 5.7136L41.6327 7.90835L41.2821 7.70597C40.4207 7.2086 39.4145 7.07685 38.4483 7.33497C37.4808 7.5936 36.6742 8.21147 36.1772 9.07372L30.3572 19.1505C29.8575 20.0106 29.724 21.0166 29.9815 21.983C29.9871 22.0041 29.9938 22.0246 29.9997 22.0456L25.5512 24.0497C24.9756 24.308 24.809 24.3223 24.7652 24.3166C24.6316 24.2992 24.2665 24.0867 23.8798 23.8618L22.2287 22.9085C22.4797 22.2162 22.515 21.4676 22.3211 20.7457C22.079 19.8435 21.5063 19.0938 20.7097 18.6356L16.6772 16.3105C15.8823 15.849 14.9475 15.7275 14.0445 15.9681C13.1096 16.2171 12.3263 16.8187 11.8385 17.6627L8.96859 22.6352C8.62346 23.2331 8.82846 23.9975 9.42634 24.3425C10.0246 24.6876 10.7887 24.4825 11.1337 23.8847L14.0033 18.913C14.1562 18.6485 14.3993 18.4606 14.6881 18.3836C14.9452 18.3152 15.2058 18.3467 15.4255 18.4742L19.4621 20.8017C19.6801 20.9271 19.8381 21.1375 19.9068 21.394C19.9838 21.6812 19.9423 21.9846 19.7897 22.2488L19.4918 22.7645C19.4907 22.7663 19.4893 22.7681 19.4883 22.77C19.4872 22.7718 19.4865 22.7738 19.4855 22.7757L8.43771 41.901C8.13634 42.4226 7.49796 42.6207 7.01596 42.3435L2.98521 40.0173C2.50196 39.7376 2.35371 39.0863 2.65483 38.5652L5.52834 33.5927C5.87371 32.995 5.66921 32.2306 5.07146 31.8852C4.47384 31.5396 3.70921 31.7445 3.36396 32.342L0.490335 37.3145C-0.50004 39.0281 0.0573347 41.2111 1.73433 42.1817L5.76771 44.5095C6.30709 44.8198 6.89746 44.9671 7.48334 44.9671C8.51284 44.9671 9.52671 44.5106 10.2247 43.6855L15.5247 46.7436C16.5937 47.36 16.7302 47.8761 16.956 48.7311C17.2367 49.7933 17.6211 51.2482 19.8255 52.5197C19.9603 52.5976 20.0965 52.6762 20.2321 52.7546L18.8721 55.1118C17.731 57.0876 18.4111 59.6247 20.3891 60.7683L24.9256 63.3863C25.575 63.7601 26.2843 63.9376 26.9853 63.9376C28.4183 63.9376 29.8148 63.1951 30.5825 61.8688L31.9422 59.5121C32.5532 59.8532 33.2171 60.0168 33.8733 60.0168C35.2487 60.0168 36.5885 59.3041 37.324 58.0316C37.6625 57.4476 37.8422 56.8005 37.8566 56.1417C39.4877 56.2691 41.1276 55.4756 41.9983 53.9676C42.4221 53.2337 42.6192 52.41 42.5787 51.5802C44.164 51.6591 45.7468 50.8678 46.5973 49.3988C47.3028 48.177 47.3505 46.7522 46.8503 45.5378C47.7735 45.1955 48.5872 44.5427 49.1166 43.6258C50.3232 41.536 49.605 38.8526 47.5142 37.6435L45.3097 36.3717L47.159 33.1668L52.015 35.9692C52.602 36.3082 53.2433 36.4693 53.8771 36.4692C55.1693 36.4691 56.4285 35.7991 57.1206 34.6017L62.9416 24.5192C63.4396 23.6578 63.5711 22.6511 63.3117 21.6843C63.0527 20.7185 62.4356 19.9126 61.5738 19.4147ZM45.0631 6.9631C47.4937 2.75722 52.8933 1.3116 57.0998 3.74035C59.128 4.91147 60.5813 6.8116 61.1923 9.09097C61.8035 11.3706 61.4951 13.743 60.324 15.771L59.058 17.963L43.798 9.15772L45.0631 6.9631ZM26.174 61.2205L21.6396 58.6037C20.8552 58.1502 20.5848 57.1446 21.0372 56.3615L22.3971 54.0045C23.5452 54.6672 24.7072 55.3378 25.8697 56.0088C27.1788 56.7645 28.4877 57.5198 29.7763 58.2637L28.4178 60.6182C27.9645 61.4016 26.9573 61.6712 26.174 61.2205ZM46.9518 42.376C46.434 43.273 45.2812 43.5811 44.3822 43.0623C44.3727 43.0568 44.3632 43.0515 44.3536 43.0463L40.3185 40.7178C39.7203 40.3727 38.956 40.5778 38.6112 41.1757C38.2661 41.7736 38.4712 42.538 39.0691 42.883L43.7451 45.5812C44.6422 46.1001 44.9508 47.252 44.4335 48.1478C43.9138 49.045 42.7608 49.3532 41.8633 48.8353L40.4861 48.0407C40.4552 48.022 40.4242 48.0035 40.3927 47.9853C40.376 47.9756 40.3591 47.9665 40.3422 47.9576L37.1863 46.1366C36.5882 45.7915 35.8238 45.9966 35.4791 46.5945C35.134 47.1923 35.3391 47.9567 35.937 48.3017L39.2041 50.187C39.6051 50.4386 39.8926 50.829 40.0173 51.2932C40.1482 51.7802 40.083 52.2861 39.8337 52.7177C39.3157 53.6147 38.1635 53.9226 37.2638 53.4037L33.6145 51.3C33.0165 50.9551 32.252 51.1606 31.9075 51.7586C31.5626 52.3566 31.768 53.1208 32.3661 53.4656L34.5833 54.7437C34.595 54.751 34.6068 54.7581 34.6186 54.7648C34.9593 54.9616 35.2033 55.2813 35.306 55.6651C35.4077 56.0462 35.3565 56.4416 35.1607 56.7793C34.7535 57.4841 33.8483 57.727 33.1441 57.3211C32.8068 57.1263 32.4666 56.9298 32.1252 56.7327C32.1197 56.7293 32.1146 56.7255 32.109 56.7222C32.1035 56.719 32.0976 56.7167 32.092 56.7136C30.4631 55.7731 28.7918 54.8085 27.1196 53.8435C25.0791 52.6658 23.0385 51.4881 21.0753 50.3543C19.7723 49.6027 19.6136 49.0018 19.3733 48.0923C19.1082 47.0887 18.7451 45.7142 16.7741 44.578L11.5272 41.5505L21.029 25.1015L22.4182 25.9032L22.6228 26.0221C23.4526 26.505 24.0353 26.8158 24.7588 26.8158C25.2563 26.8158 25.8205 26.6687 26.5767 26.3293L31.494 24.114C31.5677 24.1638 31.6428 24.2122 31.7207 24.2571L35.4622 26.4162C35.4172 26.4935 35.3721 26.5708 35.3275 26.6471C34.0915 28.7602 32.6905 31.1551 35.826 33.765C35.8807 33.8105 35.9392 33.8513 36.001 33.887L42.946 37.8936C42.9566 37.9001 42.9663 37.9076 42.9772 37.9138C42.9856 37.9186 42.9943 37.9218 43.0027 37.9263L46.2642 39.8078C47.1612 40.3271 47.4697 41.479 46.9518 42.376ZM43.1447 35.1227L37.3455 31.7771C35.9767 30.612 36.2153 30.0801 37.485 27.9096C37.532 27.8292 37.5796 27.7476 37.6271 27.6661L44.9942 31.9176L43.1447 35.1227ZM60.7772 23.2688L54.9562 33.3515C54.6202 33.9323 53.8462 34.1401 53.2652 33.8046L47.3461 30.3887C47.3395 30.3847 47.3335 30.3801 47.3267 30.3762C47.32 30.3723 47.3131 30.3695 47.3063 30.3658L32.9702 22.0925C32.6863 21.9285 32.4827 21.6611 32.3971 21.3395C32.3117 21.0195 32.355 20.688 32.5202 20.4033L38.3423 10.3228C38.5058 10.0392 38.7727 9.83572 39.0937 9.74985C39.202 9.72097 39.3115 9.7066 39.4201 9.7066C39.6338 9.7066 39.8438 9.7621 40.032 9.87072C40.0322 9.87085 40.0323 9.87085 40.0325 9.87097L58.8495 20.7287C58.8628 20.7371 58.8752 20.7463 58.889 20.7542C58.8996 20.7603 58.9107 20.7645 58.9215 20.7702L60.3238 21.5793C60.6073 21.7431 60.8111 22.0103 60.8975 22.3318C60.9836 22.6531 60.941 22.9856 60.7772 23.2688Z" fill="black"/>
<path d="M46.26 17.1199L44.2548 15.9619L42.2494 14.8038C41.6514 14.4584 40.887 14.6634 40.542 15.261C40.1967 15.8588 40.4015 16.6231 40.9993 16.9684L41.9222 17.5014L39.9042 20.9949C39.5588 21.5926 39.7635 22.357 40.3613 22.7023C40.5582 22.816 40.7732 22.87 40.9853 22.87C41.4173 22.87 41.8373 22.6459 42.0688 22.245L44.0868 18.7514L45.01 19.2845C45.2069 19.3983 45.4219 19.4523 45.6339 19.4523C46.0659 19.4523 46.486 19.2281 46.7174 18.8273C47.0627 18.2295 46.8578 17.4651 46.26 17.1199Z" fill="black"/>
</g>
<defs>
<clipPath id="clip0">
<rect width="64" height="64" fill="white"/>
</clipPath>
</defs>
</svg>
