<svg width="64" height="64" viewBox="0 0 64 64" fill="none" xmlns="http://www.w3.org/2000/svg">
<g clip-path="url(#clip0)">
<path d="M51.9277 29.4619C51.4102 29.4619 50.9902 29.8818 50.9902 30.3994V32.0391C50.9902 32.5566 51.4102 32.9766 51.9277 32.9766C52.4458 32.9766 52.8652 32.5566 52.8652 32.0391V30.3994C52.8652 29.8818 52.4458 29.4619 51.9277 29.4619Z" fill="black"/>
<path d="M50.8125 35.3862H53.0454C53.563 35.3862 53.9829 34.9663 53.9829 34.4487C53.9829 33.9312 53.563 33.5112 53.0454 33.5112H50.8125C50.2944 33.5112 49.875 33.9312 49.875 34.4487C49.875 34.9663 50.2944 35.3862 50.8125 35.3862Z" fill="black"/>
<path d="M36.002 32.0391V30.3994C36.002 29.8818 35.582 29.4619 35.0645 29.4619C34.5469 29.4619 34.127 29.8818 34.127 30.3994V32.0391C34.127 32.5566 34.5469 32.9766 35.0645 32.9766C35.582 32.9766 36.002 32.5566 36.002 32.0391Z" fill="black"/>
<path d="M33.0117 34.4487C33.0117 34.9663 33.4316 35.3862 33.9492 35.3862H36.1821C36.7002 35.3862 37.1196 34.9663 37.1196 34.4487C37.1196 33.9312 36.7002 33.5112 36.1821 33.5112H33.9492C33.4316 33.5112 33.0117 33.9312 33.0117 34.4487Z" fill="black"/>
<path d="M25.1875 32.9766C25.7056 32.9766 26.125 32.5566 26.125 32.0391V30.3994C26.125 29.8818 25.7056 29.4619 25.1875 29.4619C24.6699 29.4619 24.25 29.8818 24.25 30.3994V32.0391C24.25 32.5566 24.6699 32.9766 25.1875 32.9766Z" fill="black"/>
<path d="M24.0703 35.3862H26.3032C26.8208 35.3862 27.2407 34.9663 27.2407 34.4487C27.2407 33.9312 26.8208 33.5112 26.3032 33.5112H24.0703C23.5527 33.5112 23.1328 33.9312 23.1328 34.4487C23.1328 34.9663 23.5522 35.3862 24.0703 35.3862Z" fill="black"/>
<path d="M8.32422 32.9766C8.8418 32.9766 9.26172 32.5566 9.26172 32.0391V30.3994C9.26172 29.8818 8.8418 29.4619 8.32422 29.4619C7.80664 29.4619 7.38672 29.8818 7.38672 30.3994V32.0391C7.38672 32.5566 7.80664 32.9766 8.32422 32.9766Z" fill="black"/>
<path d="M7.20703 35.3862H9.44043C9.95801 35.3862 10.3779 34.9663 10.3779 34.4487C10.3779 33.9312 9.95801 33.5112 9.44043 33.5112H7.20703C6.68945 33.5112 6.26953 33.9312 6.26953 34.4487C6.26953 34.9663 6.68945 35.3862 7.20703 35.3862Z" fill="black"/>
<path d="M16.7541 35.2933C17.6125 35.2933 18.4196 34.9334 18.968 34.3055C19.3088 33.9159 19.2692 33.3236 18.8791 32.9828C18.4894 32.6419 17.8972 32.6815 17.5563 33.0716C17.3635 33.2918 17.0715 33.4183 16.7541 33.4183C16.4372 33.4183 16.1447 33.2918 15.9518 33.0716C15.6115 32.682 15.0192 32.6419 14.6291 32.9828C14.2394 33.3236 14.1994 33.9159 14.5402 34.3055C15.089 34.9334 15.8957 35.2933 16.7541 35.2933Z" fill="black"/>
<path d="M48.4857 35.5386C48.2342 35.1538 47.9739 34.7554 47.6361 34.4409C46.846 33.7041 45.7952 33.2646 44.826 33.2646C44.348 33.2646 43.8983 33.3696 43.4964 33.5723C43.0945 33.3696 42.6448 33.2646 42.1668 33.2646C41.1976 33.2646 40.1468 33.7041 39.3568 34.4409C39.0189 34.7554 38.7591 35.1538 38.5076 35.5386C38.261 35.9155 38.0062 36.3057 37.7552 36.4814C37.3538 36.7622 37.1326 37.2212 37.1629 37.7085C37.1932 38.1934 37.4681 38.6187 37.8983 38.8457C38.6282 39.2314 39.7493 39.6909 40.9451 39.6914H40.9456C41.9066 39.6914 42.7728 39.394 43.4964 38.8237C44.2205 39.394 45.0867 39.6914 46.0477 39.6914C47.2435 39.6914 48.3651 39.2314 49.0945 38.8462C49.5247 38.6187 49.8001 38.1938 49.8304 37.7085C49.8607 37.2212 49.639 36.7622 49.2376 36.4814C48.9866 36.3057 48.7318 35.9155 48.4857 35.5386ZM46.0477 37.8159C45.3055 37.8159 44.7103 37.5229 44.2283 36.9209C44.0506 36.6982 43.7811 36.5688 43.4964 36.5688C43.2117 36.5688 42.9422 36.6987 42.7645 36.9209C42.2825 37.5234 41.6878 37.8159 40.9456 37.8159H40.9451C40.41 37.8159 39.8719 37.6675 39.4124 37.4839C39.6688 37.1895 39.8807 36.8647 40.077 36.564C40.2674 36.2729 40.4642 35.9717 40.6351 35.8125C41.0735 35.4038 41.6746 35.1396 42.1668 35.1396C42.4481 35.1396 42.6771 35.2231 42.867 35.395C43.2239 35.7192 43.7689 35.7192 44.1263 35.395C44.3157 35.2231 44.5447 35.1396 44.8265 35.1396C45.3182 35.1396 45.9193 35.4038 46.3577 35.8125C46.5291 35.9717 46.7259 36.2729 46.9158 36.564C47.1126 36.8647 47.3245 37.1895 47.5809 37.4839C47.1209 37.6675 46.5833 37.8159 46.0477 37.8159Z" fill="black"/>
<path d="M50.1499 24.4121C50.1499 23.8945 49.73 23.4746 49.2124 23.4746H37.7812C37.2637 23.4746 36.8438 23.8945 36.8438 24.4121C36.8438 24.9297 37.2637 25.3496 37.7812 25.3496H49.2124C49.73 25.3496 50.1499 24.9297 50.1499 24.4121Z" fill="black"/>
<path d="M47.4111 22.1782C47.9287 22.1782 48.3486 21.7588 48.3486 21.2407C48.3486 20.7231 47.9287 20.3032 47.4111 20.3032H39.582C39.0645 20.3032 38.6445 20.7231 38.6445 21.2407C38.6445 21.7588 39.0645 22.1782 39.582 22.1782H47.4111Z" fill="black"/>
<path d="M61.3452 20.7949C60.1382 19.4556 58.4463 18.7339 56.311 18.6465C55.4497 17.6011 54.4624 16.6548 53.3608 15.8359C52.9453 15.5273 52.3584 15.6138 52.0493 16.0293C51.7407 16.4448 51.8271 17.0322 52.2427 17.3413C55.7036 19.9131 57.9072 23.8989 58.3091 28.2056C58.9927 35.5264 54.1646 42.6709 46.9209 44.4194C43.8267 45.166 40.5757 44.7983 37.646 43.5933C35.0405 42.522 32.7998 40.5659 31.2334 38.2402C31.2319 38.2378 31.231 38.2358 31.2295 38.2339C31.731 37.3594 32.1509 36.4443 32.4902 35.5C32.4917 35.4951 32.4937 35.4897 32.4956 35.4844C33.5366 32.6133 33.7764 29.4507 33.2168 26.4507C32.8677 24.5781 32.1895 22.7061 31.2295 21.0322C34.0132 16.8936 38.5586 14.4399 43.4971 14.4399C45.4766 14.4399 47.3994 14.8311 49.2119 15.6016C49.6885 15.8042 50.2388 15.582 50.4414 15.1055C50.644 14.6289 50.4224 14.0786 49.9458 13.876C47.8994 13.0063 45.73 12.5649 43.4971 12.5649C38.1855 12.5649 33.2822 15.0791 30.1216 19.354C28.2563 16.8433 25.7266 14.8721 22.8008 13.7153C22.9048 13.2622 22.959 12.7983 22.959 12.3281C22.959 8.90771 20.1758 6.125 16.7559 6.125C13.335 6.125 10.5527 8.90771 10.5527 12.3281C10.5527 12.7969 10.606 13.2593 10.7095 13.7109C9.34814 14.2485 8.05176 14.9678 6.8501 15.8672C6.43555 16.1768 6.35059 16.7646 6.66064 17.1792C6.9707 17.5938 7.55811 17.6787 7.97266 17.3687C9.24854 16.4146 10.6421 15.6851 12.1128 15.1924C13.4194 14.7549 14.792 14.5068 16.168 14.4521C17.5449 14.3975 18.938 14.5371 20.2759 14.8701C20.2827 14.8716 20.2896 14.8735 20.2964 14.8755C25.1792 16.0967 29.1235 19.7856 30.7847 24.5688C30.7861 24.5723 30.7871 24.5757 30.7881 24.5791C30.7598 24.543 30.7305 24.5083 30.7021 24.4727C29.8755 23.4438 28.9028 22.5278 27.7935 21.8091C26.5391 20.9985 25.1079 20.4507 23.6299 20.2319C20.4956 19.7505 17.7822 20.7197 16.7559 21.1621C15.7295 20.7197 13.0151 19.75 9.88037 20.2319C8.40283 20.459 6.97314 20.9917 5.71924 21.8076C5.71826 21.8081 5.7168 21.8091 5.71582 21.8096C4.60742 22.5298 3.64111 23.4453 2.81055 24.4702C2.78125 24.5063 2.75146 24.542 2.72217 24.5786C3.33398 22.8066 4.26758 21.1523 5.48779 19.7095C5.82227 19.314 5.77295 18.7222 5.37744 18.3882C4.98193 18.0537 4.39062 18.103 4.05615 18.4985C1.44043 21.5913 0 25.5454 0 29.6328C0 34.3682 1.90332 38.6582 4.9707 41.7534C4.52295 42.1343 4.16064 42.5996 3.89453 43.1528C2.9624 45.0903 3.55273 47.4453 5.29297 48.8071C3.85986 51.3618 3.13184 54.0742 3.13184 56.8833C3.13184 57.4009 3.55176 57.8208 4.06934 57.8208H56.1836C56.7012 57.8208 57.1211 57.4009 57.1211 56.8833C57.1211 54.0742 56.3931 51.3618 54.96 48.8071C56.7002 47.4453 57.2905 45.0903 56.3584 43.1528C56.0923 42.5996 55.73 42.1338 55.2817 41.7529C57.1191 39.8989 58.5386 37.6167 59.3813 35.0659C62.0195 34.6431 64 32.375 64 29.6328C64 28.6157 63.7271 27.6631 63.2495 26.8462C63.291 25.8394 63.2329 22.8906 61.3452 20.7949ZM12.4272 12.3276C12.4272 9.94141 14.3691 7.99951 16.7554 7.99951C19.1421 7.99951 21.0835 9.94141 21.0835 12.3276C21.0835 12.5962 21.0591 12.8613 21.0107 13.1216C20.9888 13.1157 20.9663 13.1108 20.9443 13.105C19.5801 12.7476 18.166 12.5649 16.7554 12.5649C15.9844 12.5649 15.2183 12.6211 14.4551 12.7271C13.7939 12.8188 13.1416 12.9507 12.5005 13.1216C12.4517 12.8608 12.4272 12.5962 12.4272 12.3276ZM53.7368 47.3833C52.666 48.1738 51.0234 47.8706 50.6138 46.4756C50.4727 45.9951 50.5767 45.4858 50.7471 45.0273C50.7476 45.0264 50.748 45.0249 50.7485 45.0234C51.8579 44.48 52.9067 43.812 53.8765 43.0312C54.2202 43.2681 54.4814 43.5767 54.6685 43.9658C55.23 45.1328 54.8384 46.5698 53.7368 47.3833ZM40.8242 46.4858C41.7065 46.6294 42.603 46.7012 43.4971 46.7012C44.3188 46.7012 45.1396 46.6387 45.9521 46.5176C45.9839 46.5127 46.3882 46.4756 46.395 46.4458C46.0859 47.7593 44.9038 48.7402 43.4971 48.7402C42.0903 48.7402 40.9087 47.7593 40.5991 46.4458C40.6743 46.4595 40.749 46.4736 40.8242 46.4858ZM32.064 42.1182C31.4712 42.0591 30.8398 42.0234 30.1733 42.0234C29.4956 42.0234 28.8213 42.061 28.1504 42.1333C28.8691 41.4531 29.5288 40.71 30.1216 39.9121C30.7114 40.71 31.3613 41.4478 32.064 42.1182ZM9.69922 46.1431C9.64893 46.7695 9.2334 47.2441 8.71826 47.5654C7.97998 48.0264 7.19824 47.8872 6.51611 47.3833C5.41455 46.5703 5.02295 45.1328 5.58447 43.9658C5.77148 43.5767 6.03223 43.2681 6.37598 43.0317C7.3457 43.8125 8.39453 44.4805 9.50439 45.0239C9.50488 45.0249 9.50537 45.0264 9.50586 45.0273C9.6416 45.3721 9.72998 45.7637 9.69922 46.1431ZM13.9365 46.4595C14.8672 46.6191 15.8115 46.7012 16.7554 46.7012C17.7261 46.7012 18.6973 46.6172 19.6528 46.4478C19.3428 47.7607 18.1616 48.7407 16.7554 48.7407C15.3486 48.7407 14.1665 47.7598 13.8574 46.4458C13.8838 46.4507 13.9102 46.4551 13.9365 46.4595ZM1.87598 29.8174C2.09717 29.2847 2.34424 28.7627 2.60254 28.2471C4.10742 25.3311 6.06348 23.4116 8.43408 22.5312C12.4033 21.0566 16.2871 23.0073 16.3242 23.0264C16.5928 23.1646 16.9189 23.1646 17.187 23.0264C17.1885 23.0259 17.1934 23.0234 17.2031 23.0186C17.3169 22.9619 18.0352 22.6172 19.1152 22.3394C19.1167 22.3389 19.1182 22.3384 19.1196 22.3379C21.0508 21.8154 23.1719 21.8286 25.0586 22.5244C27.437 23.4019 29.3989 25.3228 30.9077 28.2461C30.9102 28.2515 30.9131 28.2568 30.916 28.2622C31.1641 28.7451 31.3921 29.2378 31.6016 29.7388C31.6118 29.7632 31.6221 29.7881 31.6323 29.8125C31.6177 31.062 31.4561 32.3057 31.1421 33.5156C31.041 33.9038 30.9258 34.2871 30.7954 34.6665C29.1255 39.5088 25.1162 43.2349 20.1597 44.4238C17.9346 44.9575 15.5781 44.9575 13.3525 44.4243C6.83789 42.8623 1.95947 36.9185 1.87598 29.8174ZM6.96924 49.6465C7.90039 49.8677 8.85645 49.6758 9.66846 49.1821C10.8296 48.4761 11.6133 47.2856 11.5771 45.8999C11.5767 45.8901 11.5771 45.8804 11.5771 45.8706C11.687 45.9067 11.7983 45.939 11.9087 45.9731C12.019 48.5518 14.1504 50.6157 16.7554 50.6157C19.3594 50.6157 21.4902 48.5532 21.6021 45.9766C22.1333 45.8125 22.6577 45.6216 23.1743 45.4028C23.1768 45.4053 23.1787 45.4072 23.1812 45.4092C23.7012 45.8906 24.1904 46.4067 24.6484 46.9478C26.1099 48.6738 27.2622 50.6763 27.9106 52.8486C28.2114 53.8564 28.3999 54.8965 28.4697 55.9458H24.9507V52.5962C24.9507 52.0786 24.5308 51.6587 24.0132 51.6587C23.4956 51.6587 23.0757 52.0786 23.0757 52.5962V55.9458H10.4351V52.5962C10.4351 52.0786 10.0156 51.6587 9.49756 51.6587C8.97998 51.6587 8.56006 52.0786 8.56006 52.5962V55.9458H5.0376C5.18164 53.7671 5.82959 51.6548 6.96924 49.6465ZM51.6919 55.9458V52.5962C51.6919 52.0781 51.272 51.6587 50.7544 51.6587C50.2368 51.6587 49.8169 52.0781 49.8169 52.5962V55.9458H30.3516C30.3511 55.9375 30.3506 55.9297 30.3501 55.9214C30.1846 53.1812 29.2734 50.5161 27.8462 48.1802C27.2637 47.2271 26.5947 46.3242 25.8594 45.4839C25.6162 45.2061 25.3682 44.9307 25.1055 44.668C26.7559 44.1567 28.4546 43.8984 30.1733 43.8984C33.2915 43.8984 35.5972 44.7603 36.2817 45.0483C37.0444 45.4185 37.8364 45.729 38.6504 45.978C38.7632 48.5542 40.8936 50.6157 43.4971 50.6157C46.1021 50.6157 48.2334 48.5513 48.3438 45.9731C48.4546 45.939 48.5654 45.9067 48.6758 45.8701C48.6753 45.8804 48.6758 45.8901 48.6753 45.9004C48.6343 47.4204 49.6162 48.7505 50.9604 49.3848C51.6758 49.7227 52.5005 49.8325 53.2832 49.6465C54.4233 51.6548 55.0708 53.7671 55.2148 55.9458H51.6919ZM59.9448 22.0425C60.6948 22.8706 61.0596 23.9258 61.2324 24.8501C60.6743 24.5312 60.0527 24.3086 59.3901 24.2012C59.3872 24.2007 59.3848 24.2002 59.3823 24.1997C58.9854 22.9917 58.46 21.8413 57.812 20.7593C58.6802 21.0054 59.394 21.4341 59.9448 22.0425ZM59.9302 32.9712C59.9429 32.9058 59.9541 32.8403 59.9658 32.7749C60.2192 31.3911 60.3042 29.9795 60.2183 28.5752C60.1724 27.8105 60.0771 27.0508 59.9316 26.3018C60.5659 26.5767 61.1206 27.0293 61.5142 27.6182C61.9126 28.2139 62.125 28.916 62.125 29.6328C62.125 31.1318 61.228 32.417 59.9302 32.9712Z" fill="black"/>
</g>
<defs>
<clipPath id="clip0">
<rect width="64" height="64" fill="white"/>
</clipPath>
</defs>
</svg>
