<svg width="64" height="64" viewBox="0 0 64 64" fill="none" xmlns="http://www.w3.org/2000/svg">
<g clip-path="url(#clip0)">
<path d="M49.1105 35.417C49.1056 35.4149 49.1006 35.413 49.0956 35.4109L37.6001 30.8967V30.7267H43.2879C43.8461 30.7267 44.2984 30.2743 44.2984 29.7162V21.3605C44.8859 20.6451 45.2391 19.7306 45.2391 18.735C45.2391 17.7393 44.886 16.8248 44.2984 16.1095V12.2986C44.2984 5.51713 38.7811 0 31.9995 0C25.2182 0 19.7011 5.51713 19.7011 12.2986V29.7164C19.7011 30.2745 20.1535 30.7269 20.7116 30.7269H26.399V30.8969L14.9035 35.411C14.8985 35.413 14.8935 35.4149 14.8886 35.4171C14.6796 35.5031 9.77148 37.5866 9.77148 43.318V62.9896C9.77148 63.5479 10.2239 64.0001 10.782 64.0001H39.3464C39.9046 64.0001 40.3569 63.5479 40.3569 62.9896C40.3569 62.4314 39.9046 61.9791 39.3464 61.9791H28.4201V52.2108C28.4201 51.6525 27.9679 51.2002 27.4096 51.2002C26.8514 51.2002 26.3991 51.6526 26.3991 52.2108V61.9791H19.4364V51.7616C19.4364 51.2034 18.9841 50.7511 18.4259 50.7511C17.8676 50.7511 17.4154 51.2034 17.4154 51.7616V61.9791H11.7925V43.3179C11.7925 38.9989 15.4449 37.3768 15.6527 37.2881L21.6842 34.9198C20.2032 36.9711 19.3317 39.4571 19.2725 42.0825C19.2724 42.09 19.2722 42.0976 19.2722 42.1053V44.0314C18.2732 44.4334 17.5655 45.4106 17.5655 46.5516C17.5655 48.0499 18.7845 49.2689 20.2827 49.2689C21.781 49.2689 23 48.0499 23 46.5516C23 45.4105 22.2922 44.4334 21.2932 44.0314V42.117C21.3799 38.46 23.3374 35.1242 26.3991 33.2422V33.8415C26.3991 34.115 26.51 34.3771 26.7065 34.5674L30.5471 38.2879L26.7066 42.0081C26.51 42.1984 26.3991 42.4603 26.3991 42.734V49.2464C26.3991 49.8046 26.8515 50.2569 27.4096 50.2569C27.9679 50.2569 28.4201 49.8045 28.4201 49.2464V43.1621L32.7015 39.0148C32.7019 39.0144 32.7022 39.0141 32.7026 39.0137L37.2926 34.5675C37.4891 34.3773 37.6 34.1151 37.6 33.8416V33.2412C39.4644 34.385 40.938 36.0753 41.8157 38.0859H41.5259C39.8027 38.0859 38.4009 39.4875 38.4009 41.2105V46.144C38.4009 47.867 39.8026 49.2686 41.5259 49.2686C42.0841 49.2686 42.5364 48.8164 42.5364 48.2581C42.5364 47.6999 42.0841 47.2476 41.5259 47.2476C40.9172 47.2476 40.422 46.7525 40.422 46.144V41.2105C40.422 40.6019 40.9172 40.1069 41.5259 40.1069H45.0495C45.6582 40.1069 46.1534 40.602 46.1534 41.2105V46.144C46.1534 46.7526 45.6581 47.2476 45.0495 47.2476C44.4912 47.2476 44.039 47.6999 44.039 48.2581C44.039 48.8164 44.4914 49.2686 45.0495 49.2686C46.7726 49.2686 48.1745 47.867 48.1745 46.144V41.2105C48.1745 39.4875 46.7727 38.0859 45.0495 38.0859H43.9895C43.583 36.9485 43.0199 35.8862 42.3255 34.924L48.3462 37.2882C48.4969 37.3527 52.2065 38.9933 52.2065 43.318V61.979H46.5841V51.7615C46.5841 51.2033 46.1316 50.751 45.5736 50.751C45.0154 50.751 44.5631 51.2033 44.5631 51.7615V61.979H42.3556C41.7974 61.979 41.3451 62.4314 41.3451 62.9895C41.3451 63.5477 41.7974 64 42.3556 64H53.2172C53.7755 64 54.2277 63.5477 54.2277 62.9895V43.3179C54.2276 37.5866 49.3192 35.503 49.1105 35.417ZM20.2829 47.2477C19.899 47.2477 19.5866 46.9354 19.5866 46.5516C19.5866 46.1677 19.899 45.8554 20.2827 45.8554C20.6665 45.8554 20.979 46.1677 20.979 46.5516C20.979 46.9355 20.6666 47.2477 20.2829 47.2477ZM42.2772 28.7059H37.8191C39.5755 27.2843 40.7919 25.2222 41.1111 22.878C41.2055 22.8776 41.2989 22.8732 41.3915 22.8666C41.3936 22.8665 41.3957 22.8664 41.3979 22.8661C41.4949 22.8591 41.5911 22.8491 41.6862 22.8355C41.6897 22.835 41.6931 22.8348 41.6966 22.8341C41.7856 22.8213 41.8736 22.8053 41.9609 22.7868C41.9897 22.7806 42.0181 22.7735 42.0469 22.7668C42.0994 22.7544 42.1516 22.741 42.2031 22.7267C42.2276 22.72 42.253 22.715 42.2774 22.7078V28.7059H42.2772ZM42.3651 17.0375C42.3992 17.0631 42.4329 17.0893 42.4655 17.1168C42.4845 17.1329 42.5029 17.1499 42.5212 17.1667C42.9481 17.5553 43.2177 18.1136 43.2177 18.7351C43.2177 19.3569 42.9477 19.916 42.5202 20.3045C42.5024 20.3208 42.4844 20.3374 42.4661 20.353C42.4331 20.381 42.399 20.4074 42.3644 20.4334C42.3472 20.4461 42.3304 20.4594 42.3129 20.4716C42.275 20.4982 42.2357 20.5233 42.1962 20.5474C42.1805 20.557 42.165 20.567 42.149 20.5763C42.107 20.6004 42.0636 20.6226 42.0197 20.6439C42.0045 20.6513 41.9896 20.6593 41.9742 20.6663C41.9295 20.6868 41.8834 20.7047 41.8371 20.7221C41.8212 20.728 41.8057 20.7348 41.7897 20.7404C41.7434 20.7564 41.696 20.7699 41.6481 20.7829C41.6311 20.7875 41.6145 20.793 41.5974 20.7971C41.5485 20.809 41.4985 20.818 41.4482 20.8264C41.4319 20.8291 41.4156 20.8331 41.3992 20.8355C41.3327 20.8451 41.2654 20.8517 41.197 20.855V16.6155C41.2655 16.6187 41.333 16.6255 41.3994 16.635C41.4161 16.6374 41.4324 16.6415 41.4491 16.6441C41.4991 16.6526 41.549 16.6615 41.5976 16.6734C41.6149 16.6775 41.6315 16.6831 41.6485 16.6876C41.6962 16.7005 41.7436 16.7139 41.7899 16.7299C41.806 16.7354 41.8216 16.7422 41.8377 16.7482C41.884 16.7655 41.9297 16.7835 41.9744 16.8039C41.99 16.811 42.0051 16.8191 42.0206 16.8266C42.0641 16.8478 42.1072 16.8697 42.149 16.8937C42.1652 16.9031 42.1812 16.9134 42.1974 16.9233C42.2366 16.9473 42.2754 16.9719 42.3129 16.9981C42.3304 17.0107 42.3476 17.0243 42.3651 17.0375ZM21.7221 12.2986C21.7222 6.63163 26.3326 2.021 31.9996 2.021C37.6667 2.021 42.2772 6.6315 42.2772 12.2986V14.7625C42.2535 14.7555 42.2289 14.7506 42.205 14.744C42.1524 14.7294 42.0994 14.7159 42.0459 14.7031C42.0175 14.6965 41.9891 14.6894 41.9606 14.6835C41.8739 14.665 41.7861 14.6491 41.6975 14.6362C41.6927 14.6356 41.6879 14.635 41.6832 14.6344C41.5899 14.621 41.4956 14.6114 41.4002 14.6044C41.3966 14.6041 41.393 14.6039 41.3892 14.6036C41.3255 14.5991 41.2614 14.5963 41.1969 14.5946V14.26C41.1969 13.7719 40.8479 13.3535 40.3679 13.2659C40.3392 13.2607 37.4914 12.7125 34.9951 9.78625C34.7986 9.55612 34.507 9.42488 34.2066 9.432C33.904 9.43775 33.6199 9.57912 33.4324 9.81662C33.3774 9.88637 28.0525 16.5522 21.7222 17.6124V12.2986H21.7221ZM21.7222 28.706V19.6569C22.086 19.606 22.4465 19.5407 22.8024 19.46V21.6465C22.8024 24.4949 24.1217 27.0398 26.1801 28.7059H21.7222V28.706ZM35.579 31.5855V31.5858V33.4135L31.9996 36.8809L28.4204 33.4135V31.5858H28.4202V30.0425C28.4831 30.0685 28.5475 30.0912 28.6109 30.1157C28.6781 30.1417 28.7447 30.169 28.8126 30.1934C28.8864 30.2199 28.961 30.2434 29.0354 30.2679C29.1017 30.2899 29.1679 30.3131 29.2347 30.3336C29.3119 30.3571 29.3899 30.3774 29.4676 30.3989C29.5092 30.4104 29.5506 30.4229 29.5924 30.4338C29.6011 30.436 29.6097 30.4389 29.6185 30.441C29.6335 30.4449 29.6484 30.449 29.6635 30.4527C29.7439 30.473 29.825 30.4897 29.906 30.5079C29.9292 30.513 29.9524 30.5186 29.9756 30.5236C30.0047 30.5299 30.0332 30.5374 30.0624 30.5432C30.0744 30.5456 30.0862 30.5484 30.0982 30.5508C30.1825 30.5676 30.2675 30.5807 30.3522 30.5952C30.3615 30.5969 30.3707 30.5986 30.38 30.6001C30.424 30.6075 30.4675 30.6164 30.5116 30.6231C30.5205 30.6245 30.5294 30.626 30.5381 30.6273C30.6275 30.6406 30.7176 30.6501 30.8075 30.6607C30.86 30.667 30.912 30.675 30.965 30.6803C30.9709 30.6807 30.9769 30.6816 30.9827 30.6821C31.08 30.6917 31.178 30.6975 31.276 30.704C31.3247 30.7073 31.373 30.7124 31.422 30.7149C31.4251 30.715 31.4282 30.7153 31.4312 30.7154C31.5814 30.7228 31.7319 30.7265 31.8829 30.7265H32.1165C32.2674 30.7265 32.418 30.7228 32.568 30.7154C32.5711 30.7153 32.5742 30.715 32.5772 30.7149C32.6274 30.7124 32.6769 30.707 32.7266 30.7039C32.8232 30.6974 32.9201 30.6917 33.0161 30.6824C33.022 30.6819 33.0279 30.681 33.0337 30.6805C33.0889 30.675 33.1431 30.6666 33.198 30.66C33.2857 30.6496 33.3735 30.6403 33.4607 30.6273C33.4695 30.6259 33.4781 30.6244 33.4869 30.6232C33.5351 30.6159 33.5824 30.6061 33.6304 30.598C33.6362 30.597 33.6421 30.5959 33.648 30.5949C33.7324 30.5805 33.8171 30.5673 33.9009 30.5505C33.9125 30.5483 33.9239 30.5456 33.9354 30.5432C33.97 30.5362 34.004 30.5274 34.0385 30.5198C34.0561 30.516 34.0736 30.5116 34.0914 30.5077C34.173 30.4895 34.255 30.4726 34.3359 30.4522C34.3502 30.4486 34.3647 30.4447 34.3792 30.4409C34.3941 30.4371 34.4085 30.4324 34.4231 30.4286C34.4584 30.4194 34.4935 30.4089 34.5286 30.3991C34.6075 30.3774 34.6865 30.3569 34.7646 30.333C34.8297 30.3132 34.8937 30.2905 34.9582 30.2693C35.0346 30.244 35.1115 30.22 35.1871 30.1928C35.2519 30.1695 35.3156 30.1432 35.3799 30.1185C35.4461 30.0929 35.513 30.0691 35.5786 30.0421V31.5855H35.579ZM34.5442 28.2754C34.5419 28.2764 34.5392 28.2771 34.5369 28.2781C34.3221 28.3569 34.1026 28.4252 33.8789 28.483C33.8784 28.4831 33.8779 28.4832 33.8774 28.4834C33.7756 28.5096 33.6729 28.5329 33.5695 28.5546C33.5474 28.5592 33.5252 28.5638 33.5032 28.5683C33.4101 28.5869 33.3162 28.6036 33.2217 28.6186C33.2077 28.6208 33.1937 28.6235 33.1797 28.6256C33.0739 28.6416 32.967 28.6551 32.8596 28.6665C32.835 28.669 32.81 28.671 32.7854 28.6734C32.7012 28.6814 32.6169 28.6878 32.5319 28.6928C32.5016 28.6945 32.4712 28.6964 32.4407 28.6978C32.3331 28.7026 32.225 28.706 32.1161 28.706H31.8825C31.7737 28.7059 31.6657 28.7026 31.558 28.6976C31.5275 28.6962 31.4972 28.6944 31.4669 28.6926C31.382 28.6876 31.2975 28.6811 31.2132 28.6733C31.1886 28.671 31.1637 28.6691 31.1391 28.6664C31.0317 28.655 30.9249 28.6416 30.8189 28.6255C30.805 28.6234 30.7911 28.6208 30.7772 28.6186C30.6825 28.6036 30.5886 28.5869 30.4951 28.5681C30.4732 28.5639 30.4515 28.5592 30.4296 28.5548C30.3257 28.5329 30.2225 28.5095 30.1204 28.4832C30.1202 28.4832 30.1202 28.4832 30.1202 28.4832C29.8959 28.4255 29.6759 28.3568 29.4609 28.2779C29.459 28.2773 29.4571 28.2765 29.4552 28.2759C26.7549 27.2841 24.8232 24.6866 24.8232 21.6465V18.8445C29.2416 17.1597 32.7685 13.6272 34.259 11.9618C36.1517 13.8348 38.1029 14.6788 39.1755 15.03V15.7371V21.6464C39.1756 24.6863 37.2444 27.2833 34.5442 28.2754Z" fill="black"/>
</g>
<defs>
<clipPath id="clip0">
<rect width="64" height="64" fill="white"/>
</clipPath>
</defs>
</svg>
