<svg width="64" height="64" viewBox="0 0 64 64" fill="none" xmlns="http://www.w3.org/2000/svg">
<g clip-path="url(#clip0)">
<path d="M1.25 58.2617H12C12.6903 58.2617 13.25 57.7021 13.25 57.0117V55.7901C17.2909 55.9748 19.9675 57.0451 22.7857 58.1723C25.9684 59.4455 29.2593 60.7617 34.5 60.7617C36.8021 60.7617 40.2189 59.9876 44.6556 58.4608C45.3085 58.2362 45.6555 57.525 45.4309 56.8722C45.2061 56.2193 44.4946 55.8722 43.8421 56.097C39.6678 57.5333 36.5246 58.2617 34.5 58.2617C29.7407 58.2617 26.8135 57.0908 23.7143 55.8511C20.7926 54.6825 17.7786 53.4781 13.25 53.2883V40.5882C14.0513 40.3807 14.8585 40.0135 15.6962 39.6311C18.1602 38.5066 20.953 37.2317 24.7809 39.3849L30.8151 42.7796C31.375 43.095 32.0112 43.2617 32.655 43.2617H40.75C42.1285 43.2617 43.25 44.3832 43.25 45.7617C43.25 46.7855 42.6094 47.7217 41.6517 48.0927C41.3655 48.2049 41.0621 48.2617 40.75 48.2617H28.0425C27.3522 48.2617 26.7925 48.8214 26.7925 49.5117C26.7925 50.2021 27.3522 50.7617 28.0425 50.7617H40.75C41.3579 50.7617 41.9511 50.6523 42.5107 50.44C42.5207 50.4366 42.5309 50.4342 42.5409 50.4305C42.5409 50.4305 58.0887 44.6831 58.0952 44.6805C58.3836 44.5685 58.688 44.5116 59 44.5116C60.3785 44.5116 61.5 45.6331 61.5 47.0116C61.5 47.9733 60.9381 48.8611 60.0714 49.2718C59.8575 49.375 59.6432 49.4788 59.2296 49.6758L58.868 48.9526C58.5592 48.3351 57.8079 48.0848 57.191 48.3936C56.5735 48.7023 56.3232 49.4532 56.6319 50.0707L56.9639 50.7348C56.1456 51.1103 55.2155 51.5302 54.1985 51.9777C53.5666 52.2558 53.2797 52.9935 53.558 53.6253C53.8365 54.2582 54.5746 54.5435 55.2056 54.266C57.6646 53.1837 59.2919 52.4161 61.139 51.5326C62.877 50.709 64 48.9345 64 47.0117C64 44.2547 61.757 42.0117 59 42.0117C58.3807 42.0117 57.7753 42.1242 57.2001 42.3464L45.676 46.6062C45.7241 46.3299 45.75 46.0476 45.75 45.7617C45.75 43.0047 43.507 40.7617 40.75 40.7617H32.655C32.4403 40.7617 32.2284 40.7064 32.0416 40.6011L26.0066 37.206C21.0711 34.43 17.3646 36.1217 14.6584 37.3567C13.5944 37.8424 12.6756 38.2617 12 38.2617H1.25C0.55975 38.2617 0 38.8214 0 39.5117V57.0117C0 57.7021 0.55975 58.2617 1.25 58.2617ZM2.5 40.7617H10.75V55.7617H2.5V40.7617Z" fill="black"/>
<path d="M41.3287 35.556C41.5373 35.6932 41.7765 35.7618 42.0158 35.7618C42.2551 35.7618 42.4945 35.6932 42.7028 35.556C61.0387 23.4922 61.6428 14.5658 60.3708 10.3187C58.9788 5.67016 54.484 3.23804 50.7633 3.23804C46.3685 3.23804 43.4638 5.74966 42.016 7.42379C40.5682 5.74966 37.6638 3.23804 33.2697 3.23804C29.5532 3.23804 25.0612 5.67429 23.6667 10.3308C22.3955 14.575 22.9998 23.496 41.3287 35.556ZM26.0615 11.048C27.0943 7.59916 30.5462 5.73816 33.2696 5.73816C38.255 5.73816 40.8253 9.95591 40.9386 10.146C41.1632 10.5277 41.573 10.7619 42.0158 10.7619C42.46 10.7619 42.8706 10.5263 43.0948 10.143C43.1206 10.0989 45.7297 5.73816 50.7633 5.73816C53.4907 5.73816 56.9455 7.59491 57.976 11.0359C58.828 13.8812 58.9423 21.6682 42.0158 33.0115C25.0962 21.6722 25.2101 13.891 26.0615 11.048Z" fill="black"/>
<path d="M37 20.7617H40.75V24.5117C40.75 25.2021 41.3098 25.7617 42 25.7617C42.6902 25.7617 43.25 25.2021 43.25 24.5117V20.7617H47C47.6903 20.7617 48.25 20.2021 48.25 19.5117C48.25 18.8213 47.6903 18.2617 47 18.2617H43.25V14.5117C43.25 13.8213 42.6902 13.2617 42 13.2617C41.3098 13.2617 40.75 13.8213 40.75 14.5117V18.2617H37C36.3098 18.2617 35.75 18.8213 35.75 19.5117C35.75 20.2021 36.3098 20.7617 37 20.7617Z" fill="black"/>
<path d="M49.5 56.5117C50.1904 56.5117 50.75 55.9521 50.75 55.2617C50.75 54.5714 50.1904 54.0117 49.5 54.0117C48.8096 54.0117 48.25 54.5714 48.25 55.2617C48.25 55.9521 48.8096 56.5117 49.5 56.5117Z" fill="black"/>
</g>
<defs>
<clipPath id="clip0">
<rect width="64" height="64" fill="white"/>
</clipPath>
</defs>
</svg>
