<svg width="64" height="64" viewBox="0 0 64 64" fill="none" xmlns="http://www.w3.org/2000/svg">
<g clip-path="url(#clip0)">
<path d="M63.1454 0H1C0.734784 0 0.48043 0.105357 0.292893 0.292893C0.105357 0.48043 0 0.734784 0 1L0 49C0 49.2652 0.105357 49.5196 0.292893 49.7071C0.48043 49.8946 0.734784 50 1 50H22.1784L16.1564 59.4631C16.1534 59.4677 16.1514 59.4729 16.1485 59.4775C16.1303 59.5069 16.1136 59.5373 16.0985 59.5685C16.095 59.5759 16.0911 59.5833 16.0877 59.5908C16.0543 59.6652 16.0302 59.7434 16.016 59.8237C16.0141 59.8343 16.0128 59.8447 16.0111 59.8554C16.0068 59.885 16.0038 59.9149 16.0023 59.9453C16.0016 59.9571 16.0007 59.9688 16.0005 59.9806C16.0005 59.9871 15.9995 59.9931 15.9995 60.0001V63.0001C15.9995 63.2653 16.1049 63.5197 16.2924 63.7072C16.4799 63.8948 16.7343 64.0001 16.9995 64.0001H43C43.2652 64.0001 43.5196 63.8948 43.7071 63.7072C43.8946 63.5197 44 63.2653 44 63.0001V60C44 59.7348 43.8946 59.4804 43.7071 59.2929C43.5196 59.1054 43.2652 59 43 59H30.8216L36.5489 50H63.1454C63.2767 50 63.4067 49.9741 63.5281 49.9239C63.6494 49.8736 63.7596 49.8 63.8525 49.7071C63.9453 49.6143 64.019 49.504 64.0693 49.3827C64.1195 49.2614 64.1454 49.1313 64.1454 49V1C64.1454 0.734784 64.04 0.48043 63.8525 0.292893C63.6649 0.105357 63.4106 0 63.1454 0V0ZM62.1454 6H6V2H62.1454V6ZM55.9012 43C55.6682 41.8025 55.0221 40.6702 54.0215 39.7384C52.8581 38.6549 51.3548 38.008 50 38.008H47C45.6452 38.008 44.1419 38.6549 42.9785 39.7384C41.9785 40.6702 41.3318 41.8025 41.0988 43H35V26H62.1454V43H55.9012ZM53.835 43H43.165C43.7122 41.3288 45.5221 40.008 47 40.008H50C51.4779 40.008 53.2875 41.3288 53.835 43ZM26.9013 43C26.6683 41.8025 26.0221 40.6702 25.0215 39.7384C23.8581 38.6549 22.3547 38.008 21 38.008H18C16.6453 38.008 15.1419 38.6549 13.9785 39.7384C12.9785 40.6702 12.3317 41.8025 12.0988 43H6V26H33V43H26.9013ZM24.835 43H14.165C14.7122 41.3288 16.5221 40.008 18 40.008H21C22.4779 40.008 24.2875 41.3288 24.835 43ZM26.9028 24C26.671 22.8 26.0243 21.6642 25.0214 20.7304C23.8581 19.6469 22.3547 19 21 19H18C16.6453 19 15.1419 19.6469 13.9785 20.7304C12.9756 21.6642 12.3285 22.7995 12.0971 24H6V8H33V24H26.9028ZM24.8377 24H14.1625C14.7066 22.325 16.52 21 18 21H21C22.4802 21 24.2937 22.325 24.8375 24H24.8377ZM43.1628 24C43.7069 22.325 45.5203 21 47.0003 21H50.0003C51.4805 21 53.294 22.325 53.8377 24H43.1628ZM55.9034 24C55.6716 22.8 55.0249 21.6642 54.022 20.7304C52.8581 19.6469 51.3548 19 50 19H47C45.6452 19 44.1419 19.6469 42.9785 20.7304C41.9756 21.6642 41.3285 22.7995 41.0971 24H35V8H62.1454V24H55.9034ZM2 2H4V48H2V2ZM18 61H23V62H18V61ZM42 62H25V61H42V62ZM28.451 59H18.8216L24.5489 50H34.1782L28.451 59ZM6 48V45H62.1454V48H6Z" fill="black"/>
<path d="M19.5 11C18.8078 11 18.1311 11.2053 17.5555 11.5899C16.9799 11.9744 16.5313 12.5211 16.2664 13.1606C16.0015 13.8001 15.9322 14.5039 16.0673 15.1828C16.2023 15.8617 16.5356 16.4854 17.0251 16.9749C17.5146 17.4644 18.1383 17.7977 18.8172 17.9327C19.4961 18.0678 20.1998 17.9985 20.8394 17.7336C21.4789 17.4687 22.0256 17.0201 22.4101 16.4445C22.7947 15.8689 23 15.1922 23 14.5C22.999 13.5721 22.6299 12.6824 21.9737 12.0263C21.3176 11.3701 20.4279 11.001 19.5 11ZM19.5 16C19.2033 16 18.9133 15.912 18.6666 15.7472C18.42 15.5824 18.2277 15.3481 18.1142 15.074C18.0007 14.7999 17.9709 14.4983 18.0288 14.2074C18.0867 13.9164 18.2296 13.6491 18.4393 13.4393C18.6491 13.2296 18.9164 13.0867 19.2074 13.0288C19.4983 12.9709 19.7999 13.0006 20.074 13.1142C20.3481 13.2277 20.5824 13.42 20.7472 13.6666C20.912 13.9133 21 14.2033 21 14.5C20.9996 14.8977 20.8414 15.279 20.5602 15.5602C20.279 15.8414 19.8977 15.9996 19.5 16Z" fill="black"/>
<path d="M33 3H35V5H33V3Z" fill="black"/>
<path d="M19.5 30.0081C18.8078 30.0081 18.1311 30.2133 17.5555 30.5979C16.9799 30.9825 16.5313 31.5291 16.2664 32.1687C16.0015 32.8082 15.9322 33.5119 16.0673 34.1909C16.2023 34.8698 16.5356 35.4934 17.0251 35.9829C17.5146 36.4724 18.1383 36.8058 18.8172 36.9408C19.4961 37.0758 20.1998 37.0065 20.8394 36.7416C21.4789 36.4767 22.0256 36.0281 22.4101 35.4525C22.7947 34.877 23 34.2003 23 33.5081C22.999 32.5801 22.6299 31.6905 21.9737 31.0343C21.3176 30.3782 20.4279 30.0091 19.5 30.0081ZM19.5 35.0081C19.2033 35.0081 18.9133 34.9201 18.6666 34.7553C18.42 34.5904 18.2277 34.3562 18.1142 34.0821C18.0007 33.808 17.9709 33.5064 18.0288 33.2154C18.0867 32.9244 18.2296 32.6572 18.4393 32.4474C18.6491 32.2376 18.9164 32.0948 19.2074 32.0369C19.4983 31.979 19.7999 32.0087 20.074 32.1222C20.3481 32.2358 20.5824 32.428 20.7472 32.6747C20.912 32.9214 21 33.2114 21 33.5081C20.9996 33.9057 20.8414 34.287 20.5602 34.5682C20.279 34.8494 19.8977 35.0076 19.5 35.0081Z" fill="black"/>
<path d="M48.5 11C47.8078 11 47.1311 11.2053 46.5555 11.5899C45.9799 11.9744 45.5313 12.5211 45.2664 13.1606C45.0015 13.8001 44.9322 14.5039 45.0673 15.1828C45.2023 15.8617 45.5356 16.4854 46.0251 16.9749C46.5146 17.4644 47.1383 17.7977 47.8172 17.9327C48.4961 18.0678 49.1999 17.9985 49.8394 17.7336C50.4789 17.4687 51.0256 17.0201 51.4101 16.4445C51.7947 15.8689 52 15.1922 52 14.5C51.999 13.5721 51.6299 12.6824 50.9737 12.0263C50.3176 11.3701 49.4279 11.001 48.5 11ZM48.5 16C48.2033 16 47.9133 15.912 47.6666 15.7472C47.42 15.5824 47.2277 15.3481 47.1142 15.074C47.0007 14.7999 46.9709 14.4983 47.0288 14.2074C47.0867 13.9164 47.2296 13.6491 47.4393 13.4393C47.6491 13.2296 47.9164 13.0867 48.2074 13.0288C48.4983 12.9709 48.7999 13.0006 49.074 13.1142C49.3481 13.2277 49.5824 13.42 49.7472 13.6666C49.912 13.9133 50 14.2033 50 14.5C49.9996 14.8977 49.8414 15.279 49.5602 15.5602C49.279 15.8414 48.8977 15.9996 48.5 16Z" fill="black"/>
<path d="M48.5 30.0081C47.8078 30.0081 47.1311 30.2133 46.5555 30.5979C45.9799 30.9825 45.5313 31.5291 45.2664 32.1687C45.0015 32.8082 44.9322 33.5119 45.0673 34.1909C45.2023 34.8698 45.5356 35.4934 46.0251 35.9829C46.5146 36.4724 47.1383 36.8058 47.8172 36.9408C48.4961 37.0758 49.1999 37.0065 49.8394 36.7416C50.4789 36.4767 51.0256 36.0281 51.4101 35.4525C51.7947 34.877 52 34.2003 52 33.5081C51.999 32.5801 51.6299 31.6905 50.9737 31.0343C50.3176 30.3782 49.4279 30.0091 48.5 30.0081ZM48.5 35.0081C48.2033 35.0081 47.9133 34.9201 47.6666 34.7553C47.42 34.5904 47.2277 34.3562 47.1142 34.0821C47.0007 33.808 46.9709 33.5064 47.0288 33.2154C47.0867 32.9244 47.2296 32.6572 47.4393 32.4474C47.6491 32.2376 47.9164 32.0948 48.2074 32.0369C48.4983 31.979 48.7999 32.0087 49.074 32.1222C49.3481 32.2358 49.5824 32.428 49.7472 32.6747C49.912 32.9214 50 33.2114 50 33.5081C49.9996 33.9057 49.8414 34.287 49.5602 34.5682C49.279 34.8494 48.8977 35.0076 48.5 35.0081Z" fill="black"/>
</g>
<defs>
<clipPath id="clip0">
<rect width="64" height="64" fill="white"/>
</clipPath>
</defs>
</svg>
